<svg xmlns="http://www.w3.org/2000/svg" viewBox="0 0 252.874 87.935"><style>.style0{fill:	#CD1719;}.style1{fill:	#FFFFFF;}</style><g><g><path d="M0.085 39.817c0-0.211 0.084-1.223 0.084-1.434c0-0.336-0.169-2.021-0.169-2.4 c0-0.422 0.042-0.969 0.506-1.518c0.337-0.463 0.674-0.674 1.686-0.674c0.379 0 0.8 0 1.2 0 c0.674 0 0.8 0 1.8 0.125c0.464 0 1.4 0 1.6 0.043c0.463 0 1 0 1.475-0.043 c1.306-0.084 1.432-0.084 1.854-0.084c0.801 0 1.6 0 2.5 0.084c0.885 0 3 0 4 0.043h0.421 c0.632 0 1.264-0.084 1.896-0.127c0.38-0.041 0.801-0.041 1.18-0.041c1.686 0 3.4 0 3.4 2.4c0 0.252-0.043 0.506-0.043 0.8 c-0.042 0.338-0.084 0.674-0.126 1.012v0.801c0 0.1 0 1.1 0 1.602c0 0.2 0.1 1.1 0.1 1.3 c0 1.221-0.505 1.811-1.601 1.811c-0.253 0-1.391-0.125-1.686-0.125c-2.569 0-2.864 1.389-2.864 2.823v1.516 c0 0.2 0.1 0.9 0.1 1.055c0 0.715-0.042 1.432-0.084 2.148c0 0.252-0.126 1.516-0.126 1.8 c0 0.2 0 1.1 0 1.264v4.297c0 0.4 0 0.8 0.1 1.223c0.084 0.6 0.3 1.2 0.3 1.8 c0 0.715-0.253 1.305-0.759 1.727c-0.379 0.336-0.716 0.59-3.454 0.59c-0.169 0-0.801-0.043-1.433-0.084 c-0.632 0-1.222-0.043-1.475-0.043c-0.337 0-1.896 0.084-2.275 0.084c-1.222 0-2.106-0.885-2.148-0.926 c-0.126-0.211-0.337-0.844-0.337-1.518c0 0 0.084-0.926 0.127-1.391c0.042-0.463 0.042-0.969 0.042-1.432 c0-0.547-0.127-3.244-0.127-3.875c0-0.549 0.211-3.16 0.211-3.793c0-0.42-0.084-2.654-0.084-3.16c0-0.252 0.042-1.475 0.042-1.727 c0-0.758-0.127-2.065-1.222-2.192c-0.295-0.041-0.548-0.041-0.801-0.041c-0.295-0.043-0.59-0.127-0.885-0.168 c-0.463-0.043-0.885 0-1.306-0.086c-1.433-0.295-1.602-1.305-1.559-2.316V39.817z" class="style0"/><path d="M42.133 44.789c0.295 0 1.769-0.127 2.107-0.127c1.6 0 2.1 0.2 2.3 1.9 c0.043 0.2 0 1.1 0 1.307c0 0.4 0.2 2.2 0.2 2.654c0 1.516-0.674 1.686-1.264 1.77c-0.17 0.041-0.844 0-1.012 0 c-0.084 0-0.59 0.041-0.674 0.084c-0.084 0-3.834 0.084-4.002 0.084c-0.295 0-1.602-0.084-1.896-0.084 c-0.379 0-1.643 0-1.643 0.926c0 1.3 1.6 1.3 2.6 1.307c0.253 0 0.633-0.041 1.433-0.127 c0.379-0.084 0.969-0.084 1.812-0.084c0.211 0 1.307-0.041 1.558-0.041c0.801 0 1.1 0 1.9 0 c1.053 0 1.3 0.3 1.5 0.506c0.336 0.4 0.8 0.9 0.8 2.148c0 0.209-0.043 1.18-0.043 1.4 c0 0.3 0.1 1.9 0.1 2.318c0 2.275-0.422 2.99-2.191 2.99c-0.379 0-2.275-0.125-2.697-0.125 c-0.253 0-0.8 0.041-1.601 0.125c-0.759 0.084-1.686 0.127-2.275 0.127c-0.253 0-0.969-0.043-1.685-0.084 c-1.728-0.168-2.781-0.084-5.309 0.041c-0.169 0-0.759-0.041-1.349-0.041c-0.885-0.084-1.559-0.084-2.738 0 c-0.716 0.043-1.18 0.086-1.432 0.086c-2.022 0-2.064-1.18-2.064-2.064c0-0.295 0.126-1.559 0.126-1.854 c0.042-0.676 0.084-4.004 0.126-4.719c0.043-0.379 0.169-2.191 0.169-2.613c0-0.715-0.042-1.475-0.126-2.189 c-0.085-0.674-0.085-0.801-0.085-2.023c0 0-0.042-0.885-0.042-0.926c-0.042-0.254-0.042-0.422-0.042-0.969 c0-0.381-0.126-2.235-0.126-2.655c0-0.844 0.126-1.686 0.168-2.57c0.042-0.379 0.042-0.801 0.042-1.223 c0-0.674-0.042-1.389-0.084-2.064c-0.042-0.42-0.084-0.842-0.084-1.264c0-2.316 1.264-2.822 2.696-2.822 c0.253 0 1.5 0.1 1.7 0.127c0.716 0 1.854-0.043 2.569-0.043c0.337 0 2.022-0.084 2.401-0.084c0.253 0 0.5 0 0.8 0 c0.169 0 0.3 0.1 0.5 0.084c0.043 0 0.2 0 0.295-0.043h0.253c0.085 0 0.3 0 0.6 0 c0.253 0 0.5 0 0.6 0.041c0.085 0 0.3 0 0.464-0.041h0.463c0.085 0 0.3 0 0.5 0.041c0.211 0 0.4 0 0.5 0 c0.126 0 0.2 0 0.59-0.043c0.084-0.041 2.064-0.168 2.148-0.168c0.168 0 0.9 0 1.1 0.043h0.969 c0.125 0 0.8 0 0.9 0.041c0.379 0 0.9 0 1.2 0.127c1.01 0.5 1 2.1 1 2.527c0 0.506-0.041 1.053-0.041 1.6 c0 0.3 0.2 2 0.2 2.359c0 0.3 0 0.969-0.338 1.559c-0.295 0.59-0.631 0.717-1.18 0.7 c-0.168 0-0.926-0.043-1.137-0.043s-1.348 0.043-1.601 0.043c-0.295 0-1.728-0.168-2.022-0.168c-0.294 0-1.517 0.125-1.812 0.1 c-0.21 0-1.179-0.084-1.39-0.084c-0.674 0-1.602 0-1.602 0.969c0 1.2 0.8 1.2 2.9 1.223c0.253 0 1.307-0.127 1.56-0.127 c0.126 0 0.8 0 1 0.043H42.133z" class="style0"/><path d="M50.434 44.577c0.084-1.264 0.126-1.432 0.126-1.854c0-0.463-0.169-2.781-0.169-3.287 c0-0.295 0.127-1.684 0.127-1.979c0-0.127-0.042-0.717-0.042-0.844c0-1.096 0.463-2.822 2.317-2.822 c0.463 0 2.7 0.2 3.2 0.211c0.422 0 2.359-0.254 2.823-0.254c2.738 0 3.1 1.2 3.1 3.076c-0.042 0.6 0 1.7 0 2.5 v0.674c0 0.3 0 1.4 0 1.643v0.295c-0.042 0.717-0.211 1.391-0.253 2.107v0.42c0 0.4 0.1 2.5 0.1 3 c0 0.254-0.042 1.686-0.042 1.98c0 0.8 0 1.7 0.5 2.191c0.337 0.3 0.8 0.5 1.3 0.5 c0.295 0 1.77-0.168 1.938-0.168c0.463 0 0.9 0.1 1.3 0.125c0.127 0 0.675-0.084 0.843-0.084c1.601 0 2.2 1.7 2.2 2.4 c0 0.295-0.084 0.59-0.084 0.928c-0.084 0.506-0.084 2.527-0.084 3.201c0 0.4 0 0.8 0.1 1.3 c0 0.4 0.1 0.8 0.1 1.139c0 0.041-0.084 2.738-2.148 2.738c-0.337 0-2.19-0.211-2.611-0.211 c-0.801 0-1.602 0.127-2.401 0.168c-0.843 0.043-2.064 0.043-2.317 0.043c-0.211 0-1.433-0.043-1.686-0.043h-0.548 c-0.168 0-1.011-0.084-1.222-0.084c-0.548 0-1.138 0-1.685 0.043c-0.675 0.041-1.349 0.168-2.064 0.2 c-2.612 0-2.654-1.727-2.696-2.611c-0.042-0.211 0-1.307 0.042-1.561c0-0.209-0.042-1.221-0.042-1.432 c0-0.422 0.084-2.486 0.084-2.949c0-0.295 0-0.59-0.042-0.885c0-0.631-0.211-3.664-0.211-4.381 C50.307 48.6 50.3 45.8 50.4 44.577z" class="style0"/><path d="M88.901 44.789c0.295 0 1.77-0.127 2.106-0.127c1.601 0 2.1 0.2 2.3 1.9 c0.042 0.2 0 1.1 0 1.307c0 0.4 0.2 2.2 0.2 2.654c0 1.516-0.674 1.686-1.264 1.77c-0.169 0.041-0.843 0-1.012 0 c-0.084 0-0.59 0.041-0.674 0.084c-0.084 0-3.834 0.084-4.002 0.084c-0.295 0-1.602-0.084-1.896-0.084 c-0.379 0-1.643 0-1.643 0.926c0 1.3 1.6 1.3 2.6 1.307c0.253 0 0.633-0.041 1.433-0.127 c0.38-0.084 0.969-0.084 1.812-0.084c0.211 0 1.307-0.041 1.559-0.041c0.801 0 1.1 0 1.9 0 c1.053 0 1.3 0.3 1.5 0.506c0.337 0.4 0.8 0.9 0.8 2.148c0 0.209-0.042 1.18-0.042 1.4 c0 0.3 0.1 1.9 0.1 2.318c0 2.275-0.422 2.99-2.191 2.99c-0.379 0-2.274-0.125-2.696-0.125 c-0.253 0-0.8 0.041-1.601 0.125c-0.759 0.084-1.686 0.127-2.275 0.127c-0.253 0-0.969-0.043-1.685-0.084 c-1.728-0.168-2.781-0.084-5.309 0.041c-0.169 0-0.759-0.041-1.349-0.041c-0.884-0.084-1.559-0.084-2.738 0 c-0.716 0.043-1.18 0.086-1.432 0.086c-2.022 0-2.064-1.18-2.064-2.064c0-0.295 0.126-1.559 0.126-1.854 c0.042-0.676 0.084-4.004 0.126-4.719c0.043-0.379 0.169-2.191 0.169-2.613c0-0.715-0.042-1.475-0.126-2.189 c-0.085-0.674-0.085-0.801-0.085-2.023c0 0-0.042-0.885-0.042-0.926c-0.042-0.254-0.042-0.422-0.042-0.969 c0-0.381-0.126-2.235-0.126-2.655c0-0.844 0.126-1.686 0.168-2.57c0.042-0.379 0.042-0.801 0.042-1.223 c0-0.674-0.042-1.389-0.084-2.064c-0.042-0.42-0.084-0.842-0.084-1.264c0-2.316 1.264-2.822 2.696-2.822 c0.253 0 1.5 0.1 1.7 0.127c0.716 0 1.854-0.043 2.569-0.043c0.337 0 2.022-0.084 2.401-0.084c0.253 0 0.5 0 0.8 0 c0.169 0 0.3 0.1 0.5 0.084c0.042 0 0.2 0 0.294-0.043h0.253c0.085 0 0.3 0 0.6 0 c0.253 0 0.5 0 0.6 0.041c0.085 0 0.3 0 0.464-0.041h0.463c0.085 0 0.3 0 0.5 0.041c0.211 0 0.4 0 0.5 0 c0.126 0 0.2 0 0.59-0.043c0.084-0.041 2.064-0.168 2.148-0.168c0.168 0 0.9 0 1.1 0.043h0.969 c0.126 0 0.8 0 0.9 0.041c0.379 0 0.9 0 1.2 0.127c1.011 0.5 1 2.1 1 2.5 c0 0.506-0.042 1.053-0.042 1.559c0 0.3 0.2 2 0.2 2.359c0 0.3 0 0.969-0.337 1.6 c-0.295 0.59-0.632 0.717-1.18 0.717c-0.168 0-0.927-0.043-1.137-0.043c-0.211 0-1.349 0.043-1.602 0 c-0.295 0-1.728-0.168-2.021-0.168c-0.295 0-1.518 0.125-1.813 0.125c-0.21 0-1.179-0.084-1.39-0.084 c-0.674 0-1.602 0-1.602 0.969c0 1.2 0.8 1.2 2.9 1.223c0.253 0 1.307-0.127 1.56-0.127c0.126 0 0.8 0 1 0 H88.901z" class="style0"/><path d="M97.287 38.933c-0.042-0.211 0-1.307 0-1.561c0-0.168-0.127-1.01-0.127-1.221 c0-1.854 0.717-2.316 2.275-2.316c0.253 0 1.6 0.1 1.9 0.084c0.253 0 1.559-0.043 1.854-0.043c0.675 0 1.3 0 1.98-0.084 c0.126-0.043 0.211-0.043 0.337-0.043c0.169-0.041 1.2 0 1.4 0c0.168 0 0.5 0 1 0 c0.379 0 0.8 0.1 0.9 0.084h1.728c0.253 0 1.5 0.1 1.7 0.084c0.21 0 0.969-0.084 1.559-0.125 c0.548-0.043 1.096-0.086 1.728-0.086c1.011 0 3.1 0 3.1 2.529c0 0.252-0.042 1.559-0.042 1.9 c0 0.1 0.1 1.6 0.1 1.77c0.042 0.2 0.1 0.8 0.1 1.01c0 0.295-0.168 0.928-0.168 1 c-0.295 0.717-1.349 1.012-1.854 1.055c-0.253 0.041-1.517 0.041-1.77 0.041s-1.602 0.127-1.938 0.1 c-0.421 0-2.443-0.211-2.906-0.211c-1.307 0-1.307 0.885-1.307 1.053c0 1.1 1.2 1.1 1.6 1.1 c0.252 0 1.474-0.084 1.727-0.084c0.759 0 1.5 0.1 2.3 0.084h0.674c0.506-0.041 1.011-0.168 1.517-0.168 c1.644 0 1.6 1.1 1.6 1.727c0 0.17-0.042 1.055-0.042 1.264c0 0.2 0.1 1.1 0.1 1.266v0.674 c0 0.3 0.1 1.4 0.1 1.643c0 1.096-0.758 1.727-0.885 1.811c-0.632 0.506-1.053 0.506-2.443 0.5 c-0.211 0-1.222 0.084-1.475 0.084c-0.168 0-0.885-0.041-1.053-0.041c-2.359 0-2.696 0.168-2.991 0.3 c-0.759 0.422-0.97 1.602-0.97 2.15c0 0.4 0.1 0.8 0.1 1.221c0.084 0.7 0.1 1.3 0.1 1.938v1.35 c0 0.2 0.1 1.1 0.1 1.221c0 0.422-0.295 1.012-0.337 1.053c-0.126 0.17-0.59 0.59-1.095 0.6 c-0.169 0-1.054-0.084-1.265-0.084c-0.337 0-2.148 0.084-2.527 0.084c-0.295 0-1.812-0.084-2.19-0.084 c-0.295 0-1.728 0.127-2.064 0.127c-0.969 0-1.938-0.338-2.191-1.264c-0.084-0.254-0.084-1.391-0.084-1.434 c0-0.799 0.127-1.643 0.127-2.443c0-0.336-0.085-1.895-0.085-2.232c0-0.506 0.169-2.822 0.169-3.328 c0-0.758-0.042-1.518-0.127-2.275c-0.042-0.842-0.084-1.643-0.084-2.484c0-1.055 0.295-5.647 0.295-6.659 C97.413 41.2 97.3 39.4 97.3 38.933z" class="style0"/><path d="M182.249 38.722c0-0.465 0-0.928-0.042-1.434c0-0.211-0.084-1.221-0.084-1.475 c0-0.336 0.042-0.799 0.547-1.348c0.506-0.631 1.012-0.758 2.064-0.758c0.295 0 1.7 0 1.8 0.041s1.264 0.1 1.3 0.1 c0.842 0 1.727-0.127 2.569-0.127c0.969 0 1.9 0.3 2.1 0.336c1.264 0.5 1.3 2.1 1.3 2.5 c0 0-0.042 1.643-0.042 1.813c-0.042 0.379-0.21 2.064-0.21 2.484c0 0.5 0.1 2.7 0.1 3.244c0 1.1 0 1.897-0.084 2.8 c-0.085 1.475-0.127 1.6-0.127 2.021c0 0.6 0.3 3.6 0.3 4.256c0 0.842-0.042 5.055-0.042 5.982c0 0.4 0 0.8 0 1.2 c0.042 0.5 0.2 0.9 0.2 1.432c0 1.391-1.012 1.938-2.191 1.938c-0.295 0-1.643-0.168-1.938-0.168 c-0.211 0-1.433 0.043-2.317 0.127c-0.59 0.084-0.632 0.084-0.885 0.084c-2.317 0-2.527-0.254-3.033-0.844 c-0.169-0.209-0.421-0.42-0.59-0.631c-0.548-0.506-1.222-1.307-1.601-1.854c-0.422-0.59-0.759-1.223-1.18-1.813 c-0.253-0.336-1.559-1.895-1.812-2.316c-0.127-0.168-0.211-0.379-0.337-0.547c-0.169-0.254-0.38-0.506-0.548-0.717 c-0.169-0.254-0.253-0.463-0.464-0.717c-0.168-0.252-0.421-0.506-0.716-0.506c-0.759 0-0.759 0.885-0.759 1.4 c0 0.2 0 1.2 0 1.432c0 0.463-0.042 2.697-0.042 3.201v0.422c0 0.2 0.2 1.3 0.2 1.6 c0 0.043-0.042 0.59-0.084 0.758c-0.127 0.465-0.675 1.055-1.602 1.055c-0.21 0-1.222-0.127-1.475-0.127s-1.601 0.084-1.896 0.1 c-0.337 0-2.064-0.084-2.485-0.084c-0.337 0-2.022 0.127-2.401 0.127c-0.759 0-1.938-0.465-1.938-2.107 c0-0.379 0.042-0.758 0.084-1.137c0-0.506 0-0.969 0.043-1.475c0.042-0.717 0.168-1.391 0.21-2.107 c0.042-0.336 0.042-0.674 0.042-1.053c0-0.463-0.084-2.738-0.084-3.285c0-0.422-0.042-2.654-0.042-3.16 c0-0.801 0.126-4.803 0.211-6.067c0.042-0.885 0.126-1.77 0.126-2.654c0-1.012-0.042-1.223-0.295-2.697 c-0.084-0.59-0.126-1.137-0.126-1.6c0-0.971 0.421-1.813 0.463-1.896c0.422-0.59 0.927-0.633 2.149-0.633h0.8 c0.169 0 0.3 0 0.5 0.043h0.337c0.801 0 2.7 0 3.412-0.043c0.548-0.041 1.096-0.084 1.602-0.084 c1.053 0 1.8 0.1 2.6 1.139c0.085 0.1 0.9 1.3 1.5 2.443c0.211 0.4 0.4 0.7 0.7 1.1 c0.547 0.7 0.6 0.8 1 1.475c0.168 0.4 0.3 0.8 0.6 1.096c0.168 0.2 0.3 0.4 0.5 0.6 c0.169 0.2 0.3 0.4 0.4 0.631c0.632 0.8 0.8 1.1 1.3 1.096c0.211 0 0.59-0.168 0.59-0.717 c0-0.041-0.084-1.516-0.084-1.811V38.722z" class="style0"/><path d="M214.482 44.789c0.295 0 1.77-0.127 2.106-0.127c1.601 0 2.1 0.2 2.3 1.9 c0.042 0.2 0 1.1 0 1.307c0 0.4 0.2 2.2 0.2 2.654c0 1.516-0.674 1.686-1.264 1.77c-0.169 0.041-0.843 0-1.012 0 c-0.084 0-0.59 0.041-0.674 0.084c-0.084 0-3.834 0.084-4.002 0.084c-0.295 0-1.602-0.084-1.896-0.084 c-0.379 0-1.643 0-1.643 0.926c0 1.3 1.6 1.3 2.6 1.307c0.253 0 0.633-0.041 1.433-0.127 c0.38-0.084 0.969-0.084 1.812-0.084c0.211 0 1.307-0.041 1.559-0.041c0.801 0 1.1 0 1.9 0 c1.053 0 1.3 0.3 1.5 0.506c0.337 0.4 0.8 0.9 0.8 2.148c0 0.209-0.042 1.18-0.042 1.4 c0 0.3 0.1 1.9 0.1 2.318c0 2.275-0.422 2.99-2.191 2.99c-0.379 0-2.274-0.125-2.696-0.125 c-0.253 0-0.8 0.041-1.601 0.125c-0.759 0.084-1.686 0.127-2.275 0.127c-0.253 0-0.969-0.043-1.685-0.084 c-1.728-0.168-2.781-0.084-5.309 0.041c-0.169 0-0.759-0.041-1.349-0.041c-0.884-0.084-1.559-0.084-2.738 0 c-0.716 0.043-1.18 0.086-1.432 0.086c-2.022 0-2.064-1.18-2.064-2.064c0-0.295 0.126-1.559 0.126-1.854 c0.042-0.676 0.084-4.004 0.126-4.719c0.043-0.379 0.169-2.191 0.169-2.613c0-0.715-0.042-1.475-0.126-2.189 c-0.085-0.674-0.085-0.801-0.085-2.023c0 0-0.042-0.885-0.042-0.926c-0.042-0.254-0.042-0.422-0.042-0.969 c0-0.381-0.126-2.235-0.126-2.655c0-0.844 0.126-1.686 0.168-2.57c0.042-0.379 0.042-0.801 0.042-1.223 c0-0.674-0.042-1.389-0.084-2.064c-0.042-0.42-0.084-0.842-0.084-1.264c0-2.316 1.264-2.822 2.696-2.822 c0.253 0 1.5 0.1 1.7 0.127c0.716 0 1.854-0.043 2.569-0.043c0.337 0 2.022-0.084 2.401-0.084c0.253 0 0.5 0 0.8 0 c0.169 0 0.3 0.1 0.5 0.084c0.042 0 0.2 0 0.294-0.043h0.253c0.085 0 0.3 0 0.6 0 c0.253 0 0.5 0 0.6 0.041c0.085 0 0.3 0 0.464-0.041h0.463c0.085 0 0.3 0 0.5 0.041c0.211 0 0.4 0 0.5 0 c0.126 0 0.2 0 0.59-0.043c0.084-0.041 2.064-0.168 2.148-0.168c0.168 0 0.9 0 1.1 0.043h0.969 c0.126 0 0.8 0 0.9 0.041c0.379 0 0.9 0 1.2 0.127c1.011 0.5 1 2.1 1 2.5 c0 0.506-0.042 1.053-0.042 1.559c0 0.3 0.2 2 0.2 2.359c0 0.3 0 0.969-0.337 1.6 c-0.295 0.59-0.632 0.717-1.18 0.717c-0.168 0-0.927-0.043-1.137-0.043c-0.211 0-1.349 0.043-1.602 0 c-0.295 0-1.728-0.168-2.021-0.168c-0.295 0-1.518 0.125-1.813 0.125c-0.21 0-1.179-0.084-1.39-0.084 c-0.674 0-1.602 0-1.602 0.969c0 1.2 0.8 1.2 2.9 1.223c0.253 0 1.307-0.127 1.56-0.127c0.126 0 0.8 0 1 0 H214.482z" class="style0"/><path d="M240.941 38.722c0-0.465 0-0.928-0.042-1.434c0-0.211-0.084-1.221-0.084-1.475 c0-0.336 0.042-0.799 0.547-1.348c0.506-0.631 1.012-0.758 2.064-0.758c0.295 0 1.7 0 1.8 0.041s1.264 0.1 1.3 0.1 c0.842 0 1.727-0.127 2.569-0.127c0.969 0 1.9 0.3 2.1 0.336c1.264 0.5 1.3 2.1 1.3 2.5 c0 0-0.042 1.643-0.042 1.813c-0.042 0.379-0.21 2.064-0.21 2.484c0 0.5 0.1 2.7 0.1 3.244c0 1.1 0 1.897-0.084 2.8 c-0.085 1.475-0.127 1.6-0.127 2.021c0 0.6 0.3 3.6 0.3 4.256c0 0.842-0.042 5.055-0.042 5.982c0 0.4 0 0.8 0 1.2 c0.042 0.5 0.2 0.9 0.2 1.432c0 1.391-1.012 1.938-2.191 1.938c-0.295 0-1.643-0.168-1.938-0.168 c-0.211 0-1.433 0.043-2.317 0.127c-0.59 0.084-0.632 0.084-0.885 0.084c-2.317 0-2.527-0.254-3.033-0.844 c-0.169-0.209-0.421-0.42-0.59-0.631c-0.548-0.506-1.222-1.307-1.601-1.854c-0.422-0.59-0.759-1.223-1.18-1.813 c-0.253-0.336-1.559-1.895-1.812-2.316c-0.127-0.168-0.211-0.379-0.337-0.547c-0.169-0.254-0.38-0.506-0.548-0.717 c-0.169-0.254-0.253-0.463-0.464-0.717c-0.168-0.252-0.421-0.506-0.716-0.506c-0.759 0-0.759 0.885-0.759 1.4 c0 0.2 0 1.2 0 1.432c0 0.463-0.042 2.697-0.042 3.201v0.422c0 0.2 0.2 1.3 0.2 1.6 c0 0.043-0.042 0.59-0.084 0.758c-0.127 0.465-0.675 1.055-1.602 1.055c-0.21 0-1.222-0.127-1.475-0.127s-1.601 0.084-1.896 0.1 c-0.337 0-2.064-0.084-2.485-0.084c-0.337 0-2.022 0.127-2.401 0.127c-0.759 0-1.938-0.465-1.938-2.107 c0-0.379 0.042-0.758 0.085-1.137c0-0.506 0-0.969 0.042-1.475c0.042-0.717 0.168-1.391 0.21-2.107 c0.042-0.336 0.042-0.674 0.042-1.053c0-0.463-0.084-2.738-0.084-3.285c0-0.422-0.042-2.654-0.042-3.16 c0-0.801 0.126-4.803 0.211-6.067c0.042-0.885 0.126-1.77 0.126-2.654c0-1.012-0.042-1.223-0.295-2.697 c-0.084-0.59-0.126-1.137-0.126-1.6c0-0.971 0.421-1.813 0.463-1.896c0.422-0.59 0.927-0.633 2.148-0.633h0.801 c0.169 0 0.3 0 0.5 0.043h0.337c0.801 0 2.7 0 3.412-0.043c0.548-0.041 1.096-0.084 1.602-0.084 c1.053 0 1.8 0.1 2.6 1.139c0.085 0.1 0.9 1.3 1.5 2.443c0.211 0.4 0.4 0.7 0.7 1.1 c0.547 0.7 0.6 0.8 1 1.475c0.168 0.4 0.3 0.8 0.6 1.096c0.168 0.2 0.3 0.4 0.5 0.6 c0.169 0.2 0.3 0.4 0.4 0.631c0.632 0.8 0.8 1.1 1.3 1.096c0.211 0 0.59-0.168 0.59-0.717 c0-0.041-0.084-1.516-0.084-1.811V38.722z" class="style0"/></g><g><g><path d="M140.112 69.939c-0.639 0-1.248-0.246-1.713-0.689l-7.557-8.74h-4.969c-1.363 0-2.473-1.109-2.473-2.473V2.475 c0-1.365 1.109-2.475 2.473-2.475h31.652c1.365 0 2.5 1.1 2.5 2.475v55.562c0 1.363-1.111 2.473-2.477 2.473h-15.27 l0.322 6.754c0.082 1.02-0.482 1.998-1.406 2.436C140.838 69.9 140.5 69.9 140.1 69.939z"/><path d="M125.874 2.105c-0.203 0-0.367 0.166-0.367 0.369v55.562c0 0.2 0.2 0.4 0.4 0.367h5.818l8.164 9.3 c0.111 0.1 0.3 0.1 0.4 0.066c0.139-0.066 0.221-0.209 0.209-0.363l-0.506-9.029h17.553c0.205 0 0.369-0.164 0.369-0.367 V2.475c0-0.203-0.164-0.369-0.369-0.369H125.874z"/><g><path d="M155.109 30.051c0 0.776-0.635 1.411-1.411 1.411h-24.021c-0.776 0-1.411-0.635-1.411-1.411V6.813 c0-0.776 0.635-1.411 1.411-1.411h24.021c0.776 0 1.4 0.6 1.4 1.411V30.051z" class="style1"/></g><g><circle cx="133.6" cy="37.8" r="2.6" class="style1"/><circle cx="149.8" cy="37.8" r="2.6" class="style1"/><circle cx="141.7" cy="37.8" r="2.6" class="style1"/><circle cx="133.6" cy="44.5" r="2.6" class="style1"/><circle cx="149.8" cy="44.5" r="2.6" class="style1"/><circle cx="141.7" cy="44.5" r="2.6" class="style1"/><circle cx="133.6" cy="51.2" r="2.6" class="style1"/><circle cx="149.8" cy="51.2" r="2.6" class="style1"/><circle cx="141.7" cy="51.2" r="2.6" class="style1"/></g></g><g><path d="M0.266 13.72c0-0.369-0.032-0.741-0.032-1.14c0-2.62 0.426-2.819 1.343-3.272C1.839 9.2 2.1 9 3.1 9 c0.098 0 0.9 0.1 0.9 0.059c0.262 0 0.5 0 0.8 0.027c0.59 0 1.31-0.027 1.899-0.086 C7.179 9 7.6 9 7.7 8.964c0.263 0 1.6 0.1 1.9 0.057h1.441c0.23 0 1.441-0.086 1.703-0.086 c1.966 0 2.7 0.1 3.7 0.373c0.95 0.2 1.1 0.3 2 0.597c0.263 0.1 1.1 0.7 2 1.5 c0.721 0.7 1.1 1.4 1.3 1.879c0.098 0.3 0.1 0.5 0.2 0.686l0.033 0.569v0.341v0.112l-0.033 0.3 c-0.033 0.313-0.033 0.568-0.164 0.881c-0.427 0.799-0.818 1.17-1.082 1.396c-0.163 0.145-0.327 0.229-0.524 0.4 c-0.131 0.113-0.262 0.228-0.262 0.342c0 0.1 0 0.1 0.6 0.427c0.36 0.2 0.4 0.2 0.9 0.6 c1.245 0.9 1.8 2.9 1.8 3.845c0 0.739-0.164 1.054-0.524 1.765c-0.131 0.286-0.262 0.57-0.393 0.9 c-0.36 0.655-0.721 0.997-1.376 1.538c-0.589 0.483-0.852 0.712-1.442 0.911c-0.163 0.086-0.327 0.114-0.491 0.2 c-0.229 0.085-0.426 0.199-0.656 0.284c-0.72 0.284-2.228 0.426-3.079 0.426c-0.36 0-2.13-0.084-2.522-0.084 c-0.427 0-2.491 0.084-2.949 0.084c-0.459 0-2.589-0.057-3.08-0.057c-0.294 0-1.769 0.057-2.097 0.1 c-0.164 0-1.015-0.028-1.211-0.028c-0.164 0-0.95 0.058-1.147 0.058c-1.54 0-2.162-0.626-2.162-1.737 c0-0.198 0.099-0.768 0.164-1.138c0.099-0.543 0.132-1.082 0.132-1.653c0-0.256-0.099-1.538-0.099-1.852 c0-0.483 0.066-0.968 0.066-1.452c0-0.198-0.033-1.082-0.033-1.309v-0.91c0-0.43-0.033-0.856-0.033-1.282 c0-0.287 0.099-1.624 0.099-1.937C0.431 15.6 0.3 14.5 0.3 13.72z M10.095 16.511c0.328 0 0.655-0.029 0.982-0.029 c0.165 0 1 0.1 1.1 0.059c0.787 0 1.441-0.373 1.441-0.97c0-0.541-0.556-0.797-1.015-0.911 c-0.131-0.028-1.212-0.169-1.605-0.169h-0.197c-0.262 0.027-0.655 0.084-0.917 0.141c-0.951 0.285-0.951 0.854-0.951 1.1 C8.948 16.5 9.8 16.5 10.1 16.511z M13.436 21.038c-0.295-0.085-1.343-0.198-1.605-0.198h-0.098 c-0.196 0.027-0.523 0.084-0.623 0.113h-0.852c-0.917 0-1.278 0.455-1.278 0.966c0 1.2 1.1 1.2 1.6 1.227l0.491-0.029 c0.262-0.027 0.524-0.084 0.786-0.113h0.131c0.097 0 0.6 0 0.8 0.029c0.065 0 0.7 0 1.016-0.116 c0.36-0.142 0.622-0.482 0.622-0.853C14.419 21.4 13.7 21.1 13.4 21.038z"/><path d="M34.341 29.496c-0.557 0-1.541-0.114-1.999-0.228c-0.328-0.115-0.622-0.229-0.95-0.341c-0.36-0.116-0.72-0.2-1.048-0.344 c-0.294-0.085-0.557-0.227-0.819-0.371c-0.065 0.086-0.131 0.145-0.229 0.23c-0.131 0.085-0.262 0.169-0.393 0.3 c-0.099 0.084-0.197 0.2-0.327 0.313c-0.853 0.854-1.082 0.884-1.311 0.884c-0.132 0-0.361-0.029-0.493-0.144 c-0.097-0.057-0.164-0.142-0.229-0.198c-0.098-0.086-0.229-0.144-0.36-0.229c-0.132-0.084-0.196-0.228-0.327-0.341 c-0.164-0.142-0.361-0.227-0.525-0.399c-0.098-0.113-0.163-0.282-0.163-0.426c0-0.313 0.262-0.541 0.883-1.054 c0.361-0.256 0.59-0.484 0.885-0.798c-0.098-0.113-0.196-0.229-0.328-0.344c-0.491-0.567-0.557-0.626-0.949-0.995 c-0.262-0.229-0.623-0.541-0.885-1.14c-0.163-0.397-0.262-0.797-0.425-1.167c-0.098-0.341-0.262-0.653-0.328-0.996 c-0.099-0.343-0.164-2.051-0.164-2.449c0-0.229 0-0.455 0.065-0.654c0.033-0.314 0.165-0.627 0.229-0.97 c0.065-0.426 0.065-0.882 0.131-1.31c0.066-0.341 0.196-0.624 0.361-0.939c0.13-0.284 0.359-0.683 0.425-0.854 c0.361-0.742 1.082-1.88 1.606-2.278c0.295-0.258 0.852-0.655 1.048-0.826c0.492-0.456 1.147-0.997 1.9-1.367 c0.819-0.398 3.177-1.082 3.374-1.14c0 0 1.572-0.255 1.9-0.284c0.229 0 0.5 0 0.655-0.028c0.099 0 0.558-0.058 0.656-0.058 s0.197 0 0.3 0.029c3.145 0.2 3.5 0.3 3.9 0.369c0.131 0 1.7 0.5 1.9 0.7 c0.262 0.1 0.5 0.2 0.8 0.313c0.099 0.1 0.2 0.1 0.3 0.142c0.196 0.1 0.2 0.1 0.3 0.1 c0.164 0 0.164-0.027 0.36-0.257c0.131-0.114 1.049-0.911 1.213-1.11c0.164-0.17 0.295-0.313 0.721-0.313 c0.295 0 0.5 0.1 0.6 0.227c0.098 0.1 0.5 0.5 0.6 0.514c0.427 0.3 0.8 0.7 0.8 0.9 c0 0 0 0.199-0.13 0.37c-0.033 0.085-0.983 0.94-1.213 1.11c-0.131 0.086-0.196 0.142-0.196 0.2 c0 0.1 0.8 0.8 0.9 0.997c0.099 0.1 1.3 1.9 1.4 2.05c0.064 0.1 0.6 1.7 0.7 1.8 c0.066 0.2 0.2 1 0.2 1.651c0 0.3 0 0.742-0.033 0.968c-0.032 0.256-0.097 0.513-0.13 0.771v0.796 c0 0.341-0.033 0.683-0.132 0.995c-0.196 0.542-0.491 1.027-0.753 1.54c-0.197 0.482-0.36 0.996-0.623 1.5 c-0.164 0.314-0.917 1.451-1.933 2.05c-0.229 0.142-0.458 0.258-0.688 0.399c-0.229 0.144-0.426 0.285-0.622 0.4 c-0.262 0.169-0.95 0.483-1.016 0.511c-0.229 0.115-1.441 0.4-1.704 0.486c-0.721 0.284-1.441 0.512-2.392 0.6 c-0.262 0.059-0.556 0.059-0.818 0.087c-0.197 0.03-0.394 0.058-0.558 0.058c-0.098 0.028-0.917 0.028-0.983 0 c-0.098 0-0.654 0.028-0.753 0.028c-0.229 0-0.458-0.028-0.688-0.057c-0.229-0.027-0.458-0.058-0.721-0.058H34.341z M36.438 15.6 c-0.722 0.087-0.819 0.113-1.409 0.37c-1.442 0.654-1.605 0.712-1.9 1.082c-0.197 0.198-0.688 1.196-0.754 1.4 c-0.033 0.088-0.13 0.685-0.13 0.97c0 0.5 0.3 1.3 0.5 1.338c0.097 0 0.261-0.143 0.359-0.257 c0.165-0.17 0.23-0.284 0.361-0.398c0.262-0.313 0.721-0.569 1.048-0.854c0.36-0.312 0.59-0.683 0.917-1.024 c0.197-0.171 0.426-0.341 0.622-0.54c0.164-0.173 0.328-0.343 0.491-0.514c0.491-0.513 0.753-0.796 1.18-1.139 c0.098-0.057 0.229-0.144 0.229-0.199c0-0.057-0.753-0.256-1.114-0.256C36.764 15.5 36.6 15.6 36.4 15.6z M36.306 22.6 c0.262 0 0.557-0.06 0.852-0.087c1.474-0.171 1.703-0.198 2.392-0.77c0.165-0.114 0.623-0.483 0.688-0.568 c0.066-0.086 0.131-0.17 0.197-0.285c0.098-0.114 0.229-0.2 0.295-0.313c0.033-0.059 0.426-0.912 0.426-1.168 c0-0.114-0.262-1.88-0.491-1.88c-0.099 0-0.165 0.144-0.262 0.229c-0.066 0.083-0.165 0.141-0.23 0.2 c-0.361 0.313-0.884 0.91-1.278 1.252c-0.13 0.142-0.294 0.228-0.458 0.368c-0.164 0.144-0.327 0.344-0.492 0.5 c-0.196 0.173-0.458 0.342-0.623 0.541c-0.164 0.172-0.295 0.372-0.458 0.542c-0.229 0.256-0.557 0.483-0.787 0.7 c-0.098 0.088-0.196 0.2-0.328 0.314c-0.13 0.113-0.196 0.143-0.196 0.228c0 0.1 0.1 0.1 0.3 0.144H36.306z"/><path d="M51.214 12.211c0-0.199-0.031-1.026-0.031-1.227c0-0.368 0.064-0.738 0.229-1.024c0.359-0.683 1.179-0.939 2.097-0.968 c0.262 0 0.3 0 0.852-0.058c0.229-0.028 1.2 0 1.5 0c0.164 0 0.9 0.1 1.1 0.058c0.099 0 0.7 0 0.8 0 c0.392 0 2.424-0.114 2.555-0.114c0.688 0 1.4 0.1 2.1 0.144c0.229 0 1.376-0.029 1.606-0.029 c0.949 0 1.6 0.1 2.8 0.342c0.754 0.1 1 0.2 1.7 0.485c0.623 0.3 0.8 0.3 1.7 1 c0.459 0.3 0.5 0.4 0.8 0.769c0.132 0.1 0.3 0.3 0.4 0.427c0.131 0.2 0.2 0.4 0.4 0.6 c0.1 0.1 0.2 0.3 0.3 0.427c0.163 0.2 0.4 0.6 0.5 0.797c0.394 0.7 0.6 1.9 0.6 2.2 c0 0.258-0.033 0.398-0.164 0.969c-0.295 1.338-0.328 1.48-0.819 2.306c-0.884 1.367-1.343 1.766-3.048 2.4 c-0.229 0.085-0.556 0.2-0.556 0.542c0 0.2 0.2 0.4 0.5 0.426c0.164 0.1 0.8 0.2 0.9 0.2 c0.099 0 0.688-0.028 0.853-0.057c0.131 0 0.752-0.086 0.916-0.086c0.492 0 1.7 0 1.7 1.51c0 0.228-0.129 1.368-0.129 1.6 c0 0.5 0.1 1.1 0.1 1.597c0 1.536-0.885 1.707-1.538 1.707c-0.1 0-0.623-0.029-0.722-0.029 c-0.491 0-0.983 0.029-1.44 0.029c-0.132 0-1.639 0-2.262-0.143c-0.95-0.229-2.423-1.11-3.243-1.623 c-0.295-0.17-0.623-0.342-0.917-0.54c-0.132-0.087-1.54-1.026-1.571-1.055c-0.1-0.028-0.559-0.144-0.689-0.144 c-0.458 0-0.688 0.428-0.688 0.799c0 0.2 0 0.6 0.1 0.77c0.065 0.2 0.1 0.3 0.2 0.5 c0.032 0.1 0 0.2 0 0.285c0 0.741-0.426 1.196-1.344 1.196c-0.195 0-1.015-0.058-1.211-0.058 c-0.262 0-1.508 0.058-1.77 0.058c-0.229 0-0.426 0-0.623-0.029c-0.196 0-1.047-0.113-1.244-0.113 c-0.229 0-1.375 0.113-1.671 0.113c-1.181 0-1.54-0.654-1.54-1.31c0-0.198 0.033-0.398 0.064-0.568 c0.1-0.714 0.132-0.94 0.132-1.34c0-0.37 0-1.537-0.032-1.879c-0.033-0.085-0.131-0.94-0.131-0.94 c0-0.398 0.098-0.797 0.131-1.166c0-0.144-0.033-0.769-0.033-0.912c0-0.229 0.132-1.281 0.132-1.538v-2.989 c0-0.058-0.032-0.428-0.032-0.541v-0.542c0-0.256-0.133-1.536-0.166-1.821V12.211z M60.225 16.7 c0 0.1 0.1 0.5 0.1 0.569s-0.033 0.457-0.033 0.542c0 0.8 0.5 0.9 1 0.939c0.558 0 1.212-0.172 1.506-0.257 c0.82-0.228 0.853-0.257 1.278-0.628c0.328-0.313 0.427-0.397 0.427-0.823c0-0.798-0.295-0.998-0.754-1.255 c-0.393-0.199-0.458-0.199-1.211-0.256c-0.132 0-0.296 0-0.427-0.027c-0.425-0.085-0.558-0.115-0.623-0.115 C60.225 15.4 60.2 15.9 60.2 16.738z"/><path d="M89.394 12.297c0-0.315 0-0.628-0.033-0.969c0-0.144-0.066-0.825-0.066-0.998c0-0.229 0.033-0.54 0.426-0.91 c0.394-0.428 0.786-0.514 1.605-0.514c0.229 0 1.3 0 1.4 0.028c0.034 0 1 0.1 1 0.1 c0.656 0 1.343-0.086 2-0.086c0.752 0 1.5 0.2 1.7 0.228c0.984 0.4 1 1.4 1 1.682c0 0-0.032 1.11-0.032 1.2 c-0.033 0.258-0.166 1.396-0.166 1.681c0 0.3 0.1 1.9 0.1 2.193c0 0.7 0 1.281-0.065 1.9 c-0.064 0.997-0.099 1.081-0.099 1.367c0 0.4 0.2 2.4 0.2 2.877c0 0.568-0.033 3.416-0.033 4 c0 0.3 0 0.5 0 0.798c0.034 0.3 0.1 0.6 0.1 0.967c0 0.941-0.785 1.31-1.703 1.3 c-0.229 0-1.275-0.113-1.506-0.113c-0.166 0-1.114 0.029-1.802 0.085c-0.46 0.058-0.491 0.058-0.69 0.1 c-1.801 0-1.965-0.171-2.358-0.57c-0.13-0.141-0.326-0.282-0.459-0.426c-0.425-0.343-0.948-0.883-1.243-1.253 c-0.328-0.399-0.591-0.827-0.917-1.227c-0.197-0.226-1.213-1.279-1.41-1.564c-0.098-0.114-0.163-0.258-0.262-0.37 c-0.13-0.171-0.294-0.342-0.425-0.485c-0.132-0.171-0.196-0.313-0.36-0.484c-0.133-0.169-0.329-0.342-0.557-0.342 c-0.59 0-0.59 0.599-0.59 0.97c0 0.1 0 0.8 0 0.968c0 0.312-0.031 1.823-0.031 2.163v0.286 c0 0.1 0.1 0.9 0.1 1.054c0 0.028-0.032 0.397-0.064 0.513c-0.1 0.313-0.523 0.711-1.245 0.7 c-0.163 0-0.95-0.085-1.146-0.085s-1.244 0.057-1.474 0.057c-0.264 0-1.606-0.057-1.934-0.057c-0.261 0-1.572 0.085-1.867 0.1 c-0.59 0-1.508-0.313-1.508-1.424c0-0.256 0.033-0.513 0.066-0.768c0-0.341 0-0.655 0.032-0.998 c0.034-0.483 0.131-0.939 0.165-1.424c0.032-0.227 0.032-0.455 0.032-0.712c0-0.313-0.066-1.85-0.066-2.221 c0-0.284-0.031-1.792-0.031-2.136c0-0.54 0.098-3.246 0.163-4.101c0.031-0.599 0.098-1.196 0.098-1.795 c0-0.683-0.032-0.826-0.229-1.822c-0.064-0.397-0.097-0.769-0.097-1.082c0-0.655 0.326-1.224 0.359-1.281 c0.328-0.398 0.721-0.428 1.672-0.428h0.622c0.131 0 0.3 0 0.4 0.029h0.263c0.622 0 2.1 0 2.652-0.029 c0.427-0.028 0.854-0.057 1.246-0.057c0.818 0 1.4 0.1 2 0.77c0.066 0.1 0.7 0.9 1.2 1.7 c0.164 0.3 0.3 0.5 0.5 0.712c0.427 0.5 0.5 0.5 0.8 0.995c0.129 0.3 0.3 0.5 0.5 0.7 c0.13 0.1 0.3 0.3 0.4 0.397c0.129 0.1 0.2 0.3 0.3 0.428c0.488 0.6 0.6 0.7 1 0.7 c0.164 0 0.459-0.115 0.459-0.484c0-0.027-0.064-1.025-0.064-1.224V12.297z"/><path d="M114.269 16.396c0.229 0 1.378-0.085 1.639-0.085c1.245 0 1.6 0.1 1.8 1.252c0.033 0.1 0 0.7 0 0.9 c0 0.3 0.1 1.5 0.1 1.796c0 1.022-0.525 1.138-0.982 1.195c-0.132 0.027-0.657 0-0.787 0 c-0.065 0-0.459 0.027-0.524 0.056c-0.064 0-2.981 0.057-3.113 0.057c-0.229 0-1.244-0.057-1.474-0.057 c-0.294 0-1.277 0-1.277 0.627c0 0.9 1.2 0.9 2 0.883c0.196 0 0.491-0.029 1.114-0.087 c0.294-0.056 0.753-0.056 1.407-0.056c0.164 0 1.017-0.028 1.213-0.028c0.623 0 0.9 0 1.5 0 c0.819 0 1 0.2 1.2 0.343c0.261 0.3 0.6 0.6 0.6 1.452c0 0.141-0.033 0.797-0.033 0.9 c0 0.2 0.1 1.3 0.1 1.567c0 1.539-0.328 2.021-1.704 2.021c-0.294 0-1.77-0.084-2.098-0.084 c-0.195 0-0.621 0.027-1.243 0.084c-0.591 0.059-1.312 0.086-1.771 0.086c-0.196 0-0.753-0.027-1.31-0.057 c-1.343-0.113-2.163-0.058-4.129 0.029c-0.13 0-0.588-0.029-1.048-0.029c-0.688-0.058-1.212-0.058-2.129 0 c-0.558 0.027-0.918 0.057-1.114 0.057c-1.572 0-1.604-0.797-1.604-1.395c0-0.2 0.098-1.055 0.098-1.253 c0.033-0.458 0.066-2.708 0.098-3.19c0.033-0.256 0.131-1.48 0.131-1.767c0-0.482-0.031-0.997-0.098-1.48 c-0.064-0.454-0.064-0.541-0.064-1.366c0 0-0.033-0.6-0.033-0.627c-0.033-0.171-0.033-0.286-0.033-0.654 c0-0.258-0.098-1.511-0.098-1.794c0-0.57 0.098-1.14 0.131-1.738c0.033-0.255 0.033-0.541 0.033-0.826 c0-0.456-0.033-0.938-0.066-1.395c-0.033-0.284-0.065-0.569-0.065-0.855c0-1.565 0.982-1.907 2.098-1.907 c0.195 0 1.1 0.1 1.3 0.086c0.557 0 1.44-0.027 1.999-0.027c0.261 0 1.572-0.059 1.867-0.059c0.196 0 0.4 0 0.7 0 c0.13 0 0.2 0.1 0.4 0.057c0.033 0 0.1 0 0.229-0.027h0.198c0.065 0 0.3 0 0.5 0 c0.197 0 0.4 0 0.5 0.027c0.064 0 0.2 0 0.36-0.027h0.359c0.064 0 0.2 0 0.4 0.027c0.163 0 0.3 0 0.4 0 c0.097 0 0.1 0 0.458-0.03c0.067-0.027 1.605-0.113 1.672-0.113c0.131 0 0.7 0 0.9 0.029h0.754 c0.096 0 0.6 0 0.7 0.029c0.294 0 0.7 0 0.9 0.085c0.785 0.4 0.8 1.4 0.8 1.7 c0 0.342-0.031 0.712-0.031 1.054c0 0.2 0.1 1.3 0.1 1.595c0 0.2 0 0.655-0.262 1.1 c-0.229 0.396-0.492 0.484-0.918 0.484c-0.13 0-0.72-0.029-0.885-0.029c-0.163 0-1.047 0.029-1.244 0 c-0.23 0-1.344-0.114-1.573-0.114c-0.229 0-1.18 0.085-1.408 0.085c-0.163 0-0.917-0.059-1.08-0.059 c-0.525 0-1.245 0-1.245 0.656c0 0.8 0.7 0.8 2.3 0.826c0.194 0 1.015-0.086 1.212-0.086 c0.098 0 0.6 0 0.8 0.028H114.269z"/></g><g><path d="M15.41 80.117c0 0.15-0.038 0.83-0.038 0.98c0 0.2 0 0.6 0 0.904c0.02 0.3 0.1 0.6 0.1 0.9 c0 0.49-0.095 1.168-1.332 1.168c-0.171 0-0.99-0.057-1.18-0.057c-0.209 0-2.112 0.076-2.36 0.1 c-0.19 0-1.085-0.057-1.294-0.057H8.501c-0.095 0-0.609-0.02-0.723-0.02c-0.095 0-0.59 0.037-0.704 0 c-0.971 0-1.18-0.508-1.218-1.318v-0.678c0-0.17-0.058-1.035-0.058-1.242c0-0.811 0.171-1.791 1.161-1.791 c0.19 0 1 0.1 1.2 0.057c0.134 0 0.761-0.037 0.895-0.037c0.171 0 1 0 1.2 0.02h0.856 c0.114 0 1.503-0.039 1.637-0.057c0.094 0 0.5 0 0.6 0.018c0.057 0 0.418-0.018 0.495-0.018 C15.01 79 15.4 79.3 15.4 80.117z"/><path d="M28.01 74.597c-0.019-0.207-0.076-0.395-0.076-0.602c0-0.49 0.323-0.848 0.533-0.924c0.056-0.02 0.418-0.057 0.514-0.057 c0.19 0 0.4 0 0.6 0.037c0.076 0 0.6 0 0.7 0.02c0.114 0 0.666-0.057 0.799-0.057 c0.076 0 0.4 0 0.5 0.02c0.057 0 0.362-0.02 0.419-0.02c0.647 0 0.8 0.4 0.8 0.924c0 0.2 0 0.395-0.019 0.6 c-0.019 0.17-0.057 0.338-0.057 0.508c-0.019 0.094-0.038 0.736-0.038 0.943c0 0.3 0.1 1.6 0.1 1.9 c0 0.377-0.057 2.223-0.057 2.656c0 0.1 0.1 1 0.1 1.148c0 0.32-0.019 0.641-0.019 0.9 c0 0.1 0 0.8 0 0.902c0 0.17-0.038 1.018-0.038 1.207c0 0.1 0.1 0.5 0.1 0.6 c0 0.998-0.457 1.055-0.818 1.055c-0.115 0-0.647-0.037-0.762-0.037c-0.057 0-0.361 0.02-0.438 0 c-0.095 0-0.571-0.02-0.685-0.02c-0.076 0-0.324 0.02-0.59 0.037c-0.248 0.02-0.495 0.039-0.59 0 c-0.705 0-0.705-0.264-0.705-0.471c0-0.283-0.018-0.377-0.171-0.377c-0.133 0-0.247 0.131-0.343 0.2 c-0.171 0.207-0.19 0.227-0.78 0.471c-0.399 0.17-0.438 0.17-0.837 0.17c-0.152 0-0.248 0.02-0.647 0.1 c-0.114 0.02-0.229 0.02-0.343 0.02c-0.19 0-0.362-0.02-0.59-0.057c-0.324-0.037-0.362-0.057-0.799-0.188 c-0.286-0.113-0.609-0.17-0.895-0.283c-0.21-0.113-0.4-0.244-0.571-0.395c-0.152-0.133-0.286-0.283-0.438-0.416 c-0.191-0.168-0.381-0.32-0.571-0.488c-0.133-0.133-0.247-0.266-0.362-0.434c-0.133-0.207-0.247-0.434-0.381-0.641 c-0.114-0.15-0.229-0.301-0.323-0.453c-0.229-0.318-0.248-0.414-0.381-0.998c-0.095-0.414-0.133-0.564-0.133-1.281 c0-0.225 0.019-0.432 0.057-0.621c0-0.074 0.247-1.074 0.285-1.188c0.058-0.225 0.134-0.451 0.248-0.658 c0 0 0.323-0.566 0.381-0.658c0.152-0.229 0.989-1.131 1.656-1.564c0.229-0.152 0.267-0.17 0.609-0.301 c0.133-0.039 0.247-0.113 0.38-0.17c0.248-0.076 0.742-0.189 1.142-0.207c0.133-0.02 0.247-0.02 0.381-0.02 c0.247-0.018 0.495-0.057 0.742-0.076c0.267 0 0.8 0 1 0.113c0.19 0.1 0.2 0.1 0.4 0.1 c0.133 0 0.2 0.1 0.4 0.131c0.247 0.1 0.3 0.1 0.4 0.133c0.267 0 0.267-0.209 0.267-0.322 c0.019-0.092 0-0.564 0-0.678V74.597z M25.878 79.779c-0.343 0.037-0.343 0.037-0.666 0.281c-0.399 0.266-0.59 0.396-0.59 0.9 c0 0.2 0.1 0.4 0.2 0.547c0.191 0.3 0.5 0.4 0.7 0.527c0.248 0.1 0.4 0.1 1 0.1 c0.114 0 0.1 0 0.381-0.076c0.247-0.074 0.533-0.113 0.761-0.264c0.4-0.244 0.4-0.658 0.4-0.979 c0-0.037-0.038-0.133-0.095-0.283c-0.115-0.264-0.248-0.545-0.762-0.695c-0.152-0.039-0.742-0.115-0.894-0.115 C26.107 79.7 26.1 79.7 25.9 79.779z"/><path d="M38.878 81.117c-0.019 0.15-0.057 0.865-0.057 1.035c0 0.1 0 0.5 0 0.604v0.225c-0.02 0.1 0 0.6 0 0.7 c0 0.076-0.02 0.453-0.02 0.547c0 0.1 0.1 0.9 0.1 1.055c0 1.131-0.952 1.131-1.142 1.1 c-0.152 0-0.914-0.057-1.104-0.057c-0.19 0-1.199 0.076-1.427 0.076c-0.286 0-0.609-0.057-0.856-0.227 c-0.248-0.17-0.342-0.508-0.342-1.074c0-0.15 0.056-0.904 0.056-1.074c0-0.018-0.038-0.584-0.056-0.865v-0.66 c0-0.32 0-0.377 0.038-0.961c0.019-0.281 0.038-0.809 0.038-1.111c0-0.15-0.02-0.301-0.02-0.451 c-0.038-0.34-0.056-0.377-0.056-0.49c0-0.133 0.019-0.771 0.019-0.922c0-0.17 0.019-1.094 0.019-1.301v-0.584 c0-0.113-0.038-0.244-0.038-0.377c0-0.641 0.647-0.717 1.047-0.717c0.057 0 0.3 0 0.4 0 c0.057 0 0.305-0.02 0.362-0.02c0.096 0 0.6 0 0.7 0.039l0.743-0.02c0.095 0 0.609-0.057 0.723-0.057 c0.856 0 0.9 0.4 0.9 1.563c0 0.207-0.057 1.281-0.057 1.508c0 0.2 0.1 1.2 0.1 1.375V81.117z M36.195 75.3 c-0.076 0-0.438-0.02-0.514-0.02c-0.114 0-0.686 0.037-0.818 0.037c-0.514 0-0.686-0.168-0.705-0.564 c-0.02-0.17-0.02-0.697-0.02-1.037c0-0.338 0.153-0.488 0.21-0.525c0.114-0.096 0.228-0.096 0.647-0.096 c0.076 0 0.476-0.018 0.571-0.018c0.134 0 0.8 0.1 0.9 0.057c0.076 0 0.418-0.02 0.495-0.039c0.114 0 0.2 0 0.3 0 c0.076 0 0.456-0.037 0.533-0.037c0.533 0 0.6 0 0.8 0.133c0.133 0.1 0.2 0.1 0.2 0.6 c0.02 0.1 0 1 0 1.018c0 0.377-0.267 0.545-0.647 0.545c-0.076 0-0.476-0.037-0.571-0.037 c-0.114 0-0.666 0.037-0.78 0.02H36.195z"/><path d="M45.236 80.89c-0.057 0.17-0.038 0.377-0.057 0.545c0 0.039-0.039 0.264-0.059 0.4 c-0.018 0.113-0.037 0.227-0.037 0.34c0 0.1 0 0.2 0.1 0.584c0.02 0.2 0 0.4 0 0.6 c0 0.17-0.059 0.924-0.059 1.111v0.15c0.02 0.1 0.1 0.9 0.1 1.057c0 0.1 0 0.471-0.362 0.6 c-0.038 0.02-0.381 0.113-0.515 0.113c-0.17 0-0.988-0.131-1.161-0.131c-0.113 0-0.646 0.094-0.78 0.1 c-0.095 0-0.552-0.037-0.667-0.037c-0.114 0-0.627 0.057-0.761 0.057c-0.838 0-0.838-0.641-0.838-0.98 c0-0.227 0.076-1.318 0.096-1.563c0.019-0.303 0.038-1.188 0.038-1.32c0-0.17-0.076-0.998-0.076-1.186 c0-0.076 0.019-0.094 0.038-0.32c0.019-0.301 0.057-1.207 0.057-1.488c0-0.453-0.077-1.168-0.133-1.619 c-0.076-0.49-0.076-0.547-0.076-0.717c0-0.604 0.171-1.225 0.438-1.432c0.152-0.113 0.457-0.227 0.666-0.227 c0.153 0 0.3 0 0.5 0.057c0.133 0 0.6 0 0.7 0.02c0.057 0 0.191-0.02 0.343-0.02 c0.152-0.02 0.304-0.02 0.362-0.02h0.229h0.077c0.037 0 0.1 0 0.1 0.02h0.095c0.096 0 0.2 0 0.248-0.02h0.248 c0.57 0 0.6 0.2 0.7 0.754c0.019 0.2 0.1 0.2 0.1 0.246c0.057 0 0.076-0.02 0.305-0.283 c0.685-0.809 2.018-0.941 2.207-0.941c0.286 0 0.6 0.1 0.9 0.094c0.229 0 0.6 0 0.7 0 c0.516 0.1 0.9 0.4 1.2 0.547c0.532 0.4 0.6 0.5 0.9 1.094c0.039 0.1 0.3 0.5 0.4 0.6 c0.021 0.1 0.1 0.4 0.1 0.51c0.057 0.2 0.1 0.4 0.1 0.604v1.018c0.018 0.4 0.1 0.7 0.1 1.1 c0 0.1 0.1 1.4 0.1 1.471c0 0.244-0.019 0.49-0.057 0.734c-0.096 0.715-0.096 0.791-0.096 1 c0 0.2 0 0.4 0 0.584c0.019 0.2 0.1 0.3 0.1 0.529c0.02 0.1 0 0.1 0 0.2 c0 0.32-0.171 0.641-0.229 0.695c-0.133 0.152-0.398 0.209-0.608 0.209c-0.095 0-0.571-0.039-0.667-0.039 c-0.132 0-0.799 0.076-0.951 0.076c-0.057 0-0.229-0.02-0.398-0.037c-0.172 0-0.344-0.02-0.42-0.02c-0.057 0-0.209 0-0.381 0 c-0.152 0-0.322 0.018-0.38 0.018c-0.172 0-0.457-0.018-0.705-0.207c-0.228-0.17-0.285-0.414-0.285-0.641 c0-0.15 0.096-0.811 0.114-0.979c0-0.076-0.019-0.527-0.019-0.641s0.057-0.717 0.057-0.848c0-0.15-0.076-0.828-0.095-0.98v-0.244 c0-0.734-0.324-1.525-0.952-1.525C45.464 80.4 45.3 80.7 45.2 80.89z"/><path d="M61.396 73.072c0.189 0 0.3 0 0.4 0.057c0.02 0 0.4 0.2 0.4 0.867c0 0.094-0.037 0.641-0.037 0.8 c-0.02 0.3 0 0.547-0.02 0.83c-0.02 0.131-0.038 0.264-0.038 0.396c0 0.1 0.1 0.4 0.1 0.5 c0.019 0.1 0 0.4 0 0.508c0 0.1 0 0.7 0 0.773c0 0.15-0.095 0.846-0.095 0.998c0 0.1 0 0.4 0 0.5 c0.02 0.1 0 0.1 0 0.338c0 0.1 0 0.5 0 0.604c0 0.113-0.058 0.66-0.058 0.791c0 0.1 0.1 0.8 0.1 1 c0 0.113-0.039 0.736-0.039 0.887c0 0 0 0.3 0 0.377s-0.02 0.375-0.02 0.451v0.02c0.02 0.4 0.1 0.8 0.2 1.2 v0.189c0 0.527-0.189 0.828-0.247 0.885c-0.076 0.096-0.285 0.246-0.438 0.283c-0.076 0.02-0.494 0.037-0.552 0.037h-0.171 c-0.039 0-0.951-0.037-1.009-0.037c-0.19 0-1.123 0.076-1.351 0.076c-0.173 0-0.705 0-1.066-0.416 c-0.115-0.111-0.248-0.281-0.248-0.846c0-0.076 0.038-1.074 0.038-1.113c0.019-0.281 0.058-0.584 0.076-0.865 c0-0.207 0.019-0.734 0.019-0.943c0-0.057-0.019-0.357-0.019-0.432c0-0.057 0.038-0.434 0.038-0.51 c0-0.15-0.057-0.922-0.057-1.092s0.076-0.98 0.076-1.168c0-0.189-0.058-1.074-0.058-1.281c0-0.189 0.019-1.188 0.019-1.412 c0-0.094 0.039-0.564 0.039-0.678c0-0.096-0.02-0.189-0.02-0.283c-0.02-0.17-0.096-1.037-0.096-1.168 c0-0.094 0.02-0.189 0.058-0.357c0.076-0.246 0.19-0.68 0.705-0.754c0.075-0.02 0.4 0 0.5 0c0.038 0 0.286-0.02 0.323-0.02 c0.038 0 0.2 0 0.3 0.02c0.057 0 0.362-0.02 0.418-0.02c0.134 0 0.8 0.1 0.9 0.1 C60.596 73.1 61.2 73.1 61.4 73.072z"/><path d="M68.209 81.117c-0.019 0.15-0.057 0.865-0.057 1.035c0 0.1 0 0.5 0 0.604v0.225c-0.02 0.1 0 0.6 0 0.7 c0 0.076-0.02 0.453-0.02 0.547c0 0.1 0.1 0.9 0.1 1.055c0 1.131-0.953 1.131-1.143 1.1 c-0.153 0-0.914-0.057-1.104-0.057c-0.189 0-1.199 0.076-1.428 0.076c-0.285 0-0.609-0.057-0.855-0.227 c-0.248-0.17-0.343-0.508-0.343-1.074c0-0.15 0.056-0.904 0.056-1.074c0-0.018-0.037-0.584-0.056-0.865v-0.66 c0-0.32 0-0.377 0.038-0.961c0.018-0.281 0.037-0.809 0.037-1.111c0-0.15-0.02-0.301-0.02-0.451 c-0.037-0.34-0.056-0.377-0.056-0.49c0-0.133 0.019-0.771 0.019-0.922c0-0.17 0.02-1.094 0.02-1.301v-0.584 c0-0.113-0.038-0.244-0.038-0.377c0-0.641 0.646-0.717 1.046-0.717c0.058 0 0.3 0 0.4 0 c0.058 0 0.306-0.02 0.363-0.02c0.094 0 0.6 0 0.7 0.039l0.742-0.02c0.095 0 0.608-0.057 0.723-0.057 c0.856 0 0.9 0.4 0.9 1.563c0 0.207-0.057 1.281-0.057 1.508c0 0.2 0.1 1.2 0.1 1.375V81.117z M65.525 75.3 c-0.075 0-0.437-0.02-0.513-0.02c-0.114 0-0.685 0.037-0.818 0.037c-0.515 0-0.685-0.168-0.704-0.564 c-0.02-0.17-0.02-0.697-0.02-1.037c0-0.338 0.152-0.488 0.209-0.525c0.115-0.096 0.229-0.096 0.648-0.096 c0.075 0 0.475-0.018 0.57-0.018c0.133 0 0.8 0.1 0.9 0.057c0.076 0 0.418-0.02 0.494-0.039c0.115 0 0.2 0 0.3 0 c0.076 0 0.456-0.037 0.532-0.037c0.533 0 0.6 0 0.8 0.133c0.133 0.1 0.2 0.1 0.2 0.6 c0.02 0.1 0 1 0 1.018c0 0.377-0.267 0.545-0.647 0.545c-0.076 0-0.476-0.037-0.57-0.037 c-0.115 0-0.667 0.037-0.781 0.02H65.525z"/><path d="M74.567 80.89c-0.057 0.17-0.038 0.377-0.057 0.545c0 0.039-0.039 0.264-0.058 0.377s-0.038 0.227-0.038 0.3 c0 0.1 0 0.2 0.1 0.584c0.02 0.2 0 0.4 0 0.621c0 0.17-0.058 0.924-0.058 1.111v0.15 c0.019 0.1 0.1 0.9 0.1 1.057c0 0.1 0 0.471-0.36 0.639c-0.039 0.02-0.382 0.113-0.515 0.1 c-0.173 0-0.991-0.131-1.161-0.131c-0.115 0-0.648 0.094-0.781 0.094c-0.094 0-0.551-0.037-0.666-0.037 c-0.113 0-0.628 0.057-0.761 0.057c-0.837 0-0.837-0.641-0.837-0.98c0-0.227 0.076-1.318 0.094-1.563 c0.02-0.303 0.039-1.188 0.039-1.32c0-0.17-0.076-0.998-0.076-1.186c0-0.076 0.02-0.094 0.037-0.32 c0.02-0.301 0.058-1.207 0.058-1.488c0-0.453-0.075-1.168-0.134-1.619c-0.076-0.49-0.076-0.547-0.076-0.717 c0-0.604 0.172-1.225 0.438-1.432c0.153-0.113 0.457-0.227 0.666-0.227c0.152 0 0.3 0 0.5 0.1 c0.134 0 0.6 0 0.7 0.02c0.057 0 0.189-0.02 0.342-0.02c0.153-0.02 0.306-0.02 0.363-0.02h0.229h0.074 c0.039 0 0.1 0 0.1 0.02h0.097c0.095 0 0.2 0 0.247-0.02h0.248c0.57 0 0.6 0.2 0.7 0.8 c0.021 0.2 0.1 0.2 0.1 0.246c0.057 0 0.076-0.02 0.305-0.283c0.685-0.809 2.018-0.941 2.207-0.941 c0.286 0 0.6 0.1 0.9 0.094c0.229 0 0.6 0 0.7 0.018c0.514 0.1 0.9 0.4 1.2 0.5 c0.533 0.4 0.6 0.5 0.9 1.094c0.038 0.1 0.3 0.5 0.4 0.639c0.021 0.1 0.1 0.4 0.1 0.5 c0.057 0.2 0.1 0.4 0.1 0.604v1.018c0.018 0.4 0.1 0.7 0.1 1.072c0 0.1 0.1 1.4 0.1 1.5 c0 0.244-0.02 0.49-0.058 0.734c-0.097 0.715-0.097 0.791-0.097 1.016c0 0.2 0 0.4 0 0.6 c0.02 0.2 0.1 0.3 0.1 0.529c0.02 0.1 0 0.1 0 0.207c0 0.32-0.172 0.641-0.229 0.7 c-0.133 0.152-0.4 0.209-0.609 0.209c-0.095 0-0.57-0.039-0.667-0.039c-0.133 0-0.799 0.076-0.951 0.1 c-0.057 0-0.228-0.02-0.399-0.037c-0.171 0-0.343-0.02-0.419-0.02c-0.057 0-0.209 0-0.381 0.02c-0.152 0-0.322 0.018-0.381 0 c-0.171 0-0.456-0.018-0.704-0.207c-0.228-0.17-0.285-0.414-0.285-0.641c0-0.15 0.095-0.811 0.114-0.979 c0-0.076-0.02-0.527-0.02-0.641s0.058-0.717 0.058-0.848c0-0.15-0.076-0.828-0.095-0.98v-0.244c0-0.734-0.324-1.525-0.952-1.525 C74.795 80.4 74.6 80.7 74.6 80.89z"/><path d="M82.941 78.931c0.02-0.207 0.058-0.396 0.076-0.584c0-0.094 0.02-0.17 0.02-0.264c0-0.209-0.114-1.188-0.114-1.414 c0-0.264 0.038-0.451 0.114-0.604c0.229-0.451 0.571-0.451 1.181-0.451c0.057 0 0.4 0 0.5 0 c0.057 0 0.8 0 0.8 0.018c0.114 0 0.704-0.057 0.818-0.057h0.647c0.742 0 0.8 0.7 0.8 1.3 c0 0.133-0.02 0.811-0.02 0.961v0.547c0 0.17-0.076 0.959-0.076 1.148c0 0.2 0.1 1.1 0.1 1.3 c0 0.17-0.038 1.018-0.038 1.205c0 0.3 0.1 2.2 0.1 2.205c0 0.074-0.038 0.471-0.038 0.6 c-0.02 0.3 0 0.584-0.076 0.867c-0.02 0.018-0.19 0.545-0.361 0.771c0 0-0.381 0.473-0.705 0.6 c-0.057 0.02-0.59 0.227-0.666 0.246c-0.268 0.074-0.951 0.168-1.161 0.188c-0.114 0-0.704-0.02-0.837-0.02 c-0.096 0-2.018-0.018-2.018-1.074c0-0.188 0.018-1.109 0.018-1.316c0-0.133-0.037-0.85-0.037-1c0-0.338 0-0.377 0.058-0.621 c0.056-0.15 0.151-0.377 0.476-0.377c0.037 0 0.2 0.1 0.3 0.057c0.018 0 0.228-0.02 0.228-0.227 c0-0.094-0.019-0.564-0.019-0.678c0-0.244 0.038-1.449 0.038-1.732c0-0.02-0.038-0.584-0.038-0.623 c-0.02-0.092-0.02-0.207-0.02-0.678V78.931z M83.226 73.185c0.135-0.074 0.705-0.094 0.877-0.094c0.094 0 0.3 0 0.6 0 c0.246 0 0.5 0 0.6 0.037c0.229 0 1.295-0.076 1.522-0.076c0.856 0 0.9 0.4 0.9 0.5 c0.02 0.1 0 0.2 0 1.055c0 0.2 0 0.641-0.724 0.641c-0.076 0-0.381-0.02-0.457-0.02c-0.133 0-0.837 0.057-0.99 0.1 c-0.171 0-0.989-0.037-1.16-0.037c-0.096 0-0.533 0.037-0.647 0.037c-0.685 0-0.8-0.188-0.8-0.678c0-0.076 0.02-0.414 0.02-0.49 c0-0.057-0.02-0.357-0.02-0.414C82.941 73.4 83.2 73.2 83.2 73.185z"/><path d="M98.321 83.076c0.229-0.039 0.419-0.133 0.647-0.17c0.096-0.02 0.19-0.037 0.285-0.037c0.419 0 0.7 0.3 0.7 0.6 c0 0.113-0.076 0.961-0.076 1.148c0 0.1 0 0.2 0 0.283c0.02 0.2 0.1 0.6 0.1 0.6 c0 0.621-0.419 0.734-0.571 0.771c-0.762 0.207-1.238 0.246-2.455 0.246c0 0-0.458 0.018-0.496 0 c-0.113 0-0.723 0.02-0.838 0.02c-0.056 0-0.779-0.057-0.799-0.057c-0.095-0.02-0.189-0.057-0.305-0.076 c-0.133-0.018-0.285-0.018-0.438-0.057c-0.171-0.037-0.323-0.113-0.495-0.15c-0.189-0.057-0.361-0.057-0.552-0.094 c-0.057-0.02-0.686-0.227-0.761-0.244c-0.19-0.076-0.382-0.189-0.571-0.303c-0.609-0.32-0.762-0.395-1.123-0.715 c-0.533-0.453-1.219-1.508-1.428-1.959c-0.076-0.209-0.438-1.188-0.438-1.752c0-0.246 0-0.961 0.097-1.244 c0.018-0.094 0.057-0.17 0.076-0.264c0.057-0.15 0.057-0.301 0.094-0.451c0.02-0.057 0.172-0.527 0.172-0.547 c0.038-0.094 0.4-0.865 0.477-0.941c0.114-0.17 0.266-0.303 0.399-0.453c0.095-0.094 0.171-0.207 0.247-0.32 c0.113-0.131 0.266-0.264 0.399-0.377c0.114-0.074 0.532-0.357 0.724-0.451c0.19-0.076 0.399-0.131 0.59-0.227 c0.172-0.074 0.323-0.17 0.477-0.225c0.095-0.039 0.514-0.189 0.779-0.227c0.115-0.02 0.895-0.096 1.027-0.096 c0.02 0 0.5 0 0.9 0.039c0.248 0 1.2 0.1 1.4 0.188c0.133 0 0.3 0.1 0.4 0.1 c0.172 0 0.3 0.1 0.5 0.133c0.189 0.1 1.2 0.6 1.3 0.734c0.171 0.1 0.3 0.3 0.5 0.4 c0.095 0.1 0.2 0.2 0.3 0.318c0.152 0.2 0.2 0.2 0.4 0.529c0.076 0.1 0.2 0.2 0.2 0.4 c0.096 0.2 0.3 1.2 0.3 1.188c0.019 0.1 0 0.3 0 0.49c0.019 0.2 0.1 0.4 0.1 0.6 c0.019 0.1 0 0.1 0 0.227c0 0.357-0.057 1.223-0.799 1.318h-1.275c-0.171 0-1.086 0.074-1.295 0.1 c-0.171 0-0.361-0.018-0.551-0.037c-0.173-0.02-0.344-0.037-0.496-0.037c-0.096 0-0.514 0.037-0.608 0 c-0.19 0-1.066-0.037-1.276-0.037c-0.247 0-0.704 0-0.704 0.375c0 0.3 0.7 0.6 1.2 0.6 c0.058 0 0.267-0.018 0.324-0.018c0.057 0 0.4 0 0.4 0.018c0.095 0 0.2 0 0.3 0 c0.398 0.1 0.4 0.1 1.1 0.057c0.171 0 1.1 0 1.3 0.02H98.321z M94.667 79.382l0.381-0.037 c0.095 0 0.5 0 0.6 0.037c0.379 0 0.551-0.207 0.551-0.357c0-0.113-0.113-0.34-0.457-0.451 c-0.172-0.057-0.647-0.113-0.818-0.113c-0.018 0-0.381 0.057-0.381 0.057h-0.438c-0.342 0-0.818 0.057-0.818 0.5 c0 0.3 0.4 0.4 0.6 0.357c0.113 0 0.229-0.02 0.342-0.02H94.667z"/><path d="M105.116 75.917c0.076-0.322 0.361-0.453 0.571-0.529c0.551-0.244 0.799-0.357 1.18-0.678 c0.152-0.113 0.305-0.244 0.457-0.357c0.113-0.094 0.229-0.17 0.342-0.264c0.19-0.15 0.496-0.453 0.724-0.697 c0.096-0.094 0.209-0.207 0.323-0.264c0.134-0.057 0.248-0.057 1.257-0.057c0.133 0 0.2 0 0.4 0 c0.361 0.1 0.4 0.2 0.4 1.223c0 0.076-0.02 0.453-0.02 0.527c0 0.7 0.4 0.7 0.6 0.7 c0.075 0 0.438-0.02 0.514-0.02h0.285c0.419 0 0.5 0.3 0.5 0.49c0 0.113-0.058 0.641-0.058 0.8 c0 0.1 0 0.5 0 0.604c0 0.076-0.056 0.434-0.056 0.51c0 0.1 0.1 0.5 0.1 0.6 c0 0.564-0.569 0.602-0.761 0.602c-0.076 0-0.476-0.037-0.57-0.037c-0.418 0-0.514 0.188-0.514 0.5 c0 0.1 0 0.4 0 0.434c0 0.074-0.038 0.453-0.038 0.547c0 0.1 0 0.5 0 0.5 c0 0.094-0.038 0.582-0.038 0.695c0 0.5 0.1 0.7 0.4 0.697c0.076 0 0.38-0.037 0.457-0.037 c0.037 0 0.2 0 0.2 0.018c0.019 0 0.151-0.018 0.171-0.018c0.19 0 0.6 0.1 0.6 0.5 c0 0.096-0.059 0.547-0.059 0.641c0 0.1 0 0.3 0 0.434c0.019 0.1 0.1 0.3 0.1 0.5 c0 0.076-0.056 0.453-0.056 0.529c0 0.1 0 0.3 0 0.357c0 0.131-0.038 0.547-0.4 0.8 c-0.095 0.055-0.456 0.188-0.628 0.225c-0.038 0-1.18 0.113-1.408 0.113c-0.096 0-0.209 0-0.324 0 c-0.057 0-0.361 0.018-0.438 0.018c-0.381 0-0.457 0-0.837-0.074c-0.153-0.037-0.323-0.037-0.495-0.057 c-0.113-0.02-0.762-0.189-0.876-0.227c0 0-0.399-0.207-0.438-0.207c-0.019-0.018-0.438-0.395-0.476-0.451 c-0.267-0.34-0.267-1.32-0.267-1.695c0-0.152 0.038-0.885 0.038-1.055c0-0.172-0.057-1.057-0.057-1.244 c0-0.244 0.076-1.414 0.076-1.678c0-0.734-0.172-0.809-0.305-0.865c-0.096-0.037-0.21-0.037-0.305-0.076 c-0.076-0.037-0.305-0.15-0.305-0.488c0-0.094 0.057-0.51 0.057-0.604c0-0.076-0.037-0.471-0.057-0.564 c0-0.076 0.02-0.416 0.02-0.49c0-0.057-0.02-0.283-0.02-0.32S105.116 76 105.1 75.917z"/><path d="M118.135 81.117c-0.02 0.15-0.058 0.865-0.058 1.035c0 0.1 0 0.5 0 0.604v0.225c-0.02 0.1 0 0.6 0 0.7 c0 0.076-0.02 0.453-0.02 0.547c0 0.1 0.1 0.9 0.1 1.055c0 1.131-0.951 1.131-1.141 1.1 c-0.154 0-0.915-0.057-1.105-0.057c-0.189 0-1.198 0.076-1.428 0.076c-0.285 0-0.609-0.057-0.855-0.227 c-0.248-0.17-0.343-0.508-0.343-1.074c0-0.15 0.056-0.904 0.056-1.074c0-0.018-0.037-0.584-0.056-0.865v-0.66 c0-0.32 0-0.377 0.038-0.961c0.018-0.281 0.038-0.809 0.038-1.111c0-0.15-0.021-0.301-0.021-0.451 c-0.037-0.34-0.056-0.377-0.056-0.49c0-0.133 0.019-0.771 0.019-0.922c0-0.17 0.02-1.094 0.02-1.301v-0.584 c0-0.113-0.038-0.244-0.038-0.377c0-0.641 0.647-0.717 1.046-0.717c0.058 0 0.3 0 0.4 0 c0.059 0 0.306-0.02 0.363-0.02c0.094 0 0.6 0 0.7 0.039l0.742-0.02c0.095 0 0.609-0.057 0.723-0.057 c0.857 0 0.9 0.4 0.9 1.563c0 0.207-0.058 1.281-0.058 1.508c0 0.2 0.1 1.2 0.1 1.375V81.117z M115.45 75.3 c-0.075 0-0.437-0.02-0.513-0.02c-0.114 0-0.685 0.037-0.818 0.037c-0.515 0-0.685-0.168-0.704-0.564 c-0.02-0.17-0.02-0.697-0.02-1.037c0-0.338 0.152-0.488 0.209-0.525c0.115-0.096 0.229-0.096 0.648-0.096 c0.075 0 0.476-0.018 0.57-0.018c0.133 0 0.8 0.1 0.9 0.057c0.076 0 0.418-0.02 0.494-0.039c0.115 0 0.2 0 0.3 0 c0.076 0 0.456-0.037 0.533-0.037c0.531 0 0.6 0 0.8 0.133c0.133 0.1 0.2 0.1 0.2 0.6 c0.02 0.1 0 1 0 1.018c0 0.377-0.266 0.545-0.647 0.545c-0.076 0-0.476-0.037-0.571-0.037 c-0.114 0-0.666 0.037-0.78 0.02H115.45z"/><path d="M123.617 73.072c0.189 0 0.3 0 0.4 0.057c0.02 0 0.4 0.2 0.4 0.867c0 0.094-0.037 0.641-0.037 0.8 c-0.019 0.3 0 0.547-0.019 0.83c-0.021 0.131-0.038 0.264-0.038 0.396c0 0.1 0.1 0.4 0.1 0.5 c0.02 0.1 0 0.4 0 0.508c0 0.1 0 0.7 0 0.773c0 0.15-0.096 0.846-0.096 0.998c0 0.1 0 0.4 0 0.5 c0.021 0.1 0 0.1 0 0.338c0 0.1 0 0.5 0 0.604c0 0.113-0.057 0.66-0.057 0.8 c0 0.1 0.1 0.8 0.1 0.998c0 0.113-0.039 0.736-0.039 0.887c0 0 0 0.3 0 0.377s-0.021 0.375-0.021 0.451v0.02 c0.021 0.4 0.1 0.8 0.2 1.223v0.189c0 0.527-0.19 0.828-0.247 0.885c-0.076 0.096-0.285 0.246-0.438 0.3 c-0.076 0.02-0.495 0.037-0.552 0.037h-0.171c-0.038 0-0.952-0.037-1.009-0.037c-0.191 0-1.124 0.076-1.352 0.1 c-0.172 0-0.705 0-1.066-0.416c-0.114-0.111-0.248-0.281-0.248-0.846c0-0.076 0.039-1.074 0.039-1.113 c0.019-0.281 0.057-0.584 0.076-0.865c0-0.207 0.019-0.734 0.019-0.943c0-0.057-0.019-0.357-0.019-0.432 c0-0.057 0.038-0.434 0.038-0.51c0-0.15-0.058-0.922-0.058-1.092s0.076-0.98 0.076-1.168c0-0.189-0.057-1.074-0.057-1.281 c0-0.189 0.019-1.188 0.019-1.412c0-0.094 0.038-0.564 0.038-0.678c0-0.096-0.019-0.189-0.019-0.283 c-0.02-0.17-0.096-1.037-0.096-1.168c0-0.094 0.021-0.189 0.058-0.357c0.076-0.246 0.19-0.68 0.705-0.754 c0.076-0.02 0.4 0 0.5 0c0.039 0 0.287-0.02 0.324-0.02c0.039 0 0.2 0 0.3 0.02c0.058 0 0.362-0.02 0.418-0.02 c0.134 0 0.8 0.1 0.9 0.057C122.817 73.1 123.5 73.1 123.6 73.072z"/><path d="M139.129 83.076c0.229-0.039 0.418-0.133 0.646-0.17c0.096-0.02 0.189-0.037 0.285-0.037c0.42 0 0.7 0.3 0.7 0.6 c0 0.113-0.076 0.961-0.076 1.148c0 0.1 0 0.2 0 0.283c0.02 0.2 0.1 0.6 0.1 0.6 c0 0.621-0.418 0.734-0.57 0.771c-0.761 0.207-1.237 0.246-2.455 0.246c0 0-0.457 0.018-0.496 0 c-0.113 0-0.723 0.02-0.837 0.02c-0.058 0-0.78-0.057-0.8-0.057c-0.094-0.02-0.189-0.057-0.304-0.076 c-0.134-0.018-0.286-0.018-0.438-0.057c-0.17-0.037-0.324-0.113-0.494-0.15c-0.19-0.057-0.363-0.057-0.552-0.094 c-0.058-0.02-0.686-0.227-0.763-0.244c-0.189-0.076-0.38-0.189-0.57-0.303c-0.609-0.32-0.762-0.395-1.123-0.715 c-0.532-0.453-1.219-1.508-1.428-1.959c-0.076-0.209-0.438-1.188-0.438-1.752c0-0.246 0-0.961 0.095-1.244 c0.021-0.094 0.058-0.17 0.076-0.264c0.058-0.15 0.058-0.301 0.097-0.451c0.018-0.057 0.17-0.527 0.17-0.547 c0.039-0.094 0.399-0.865 0.476-0.941c0.114-0.17 0.267-0.303 0.399-0.453c0.096-0.094 0.172-0.207 0.248-0.32 c0.115-0.131 0.268-0.264 0.4-0.377c0.113-0.074 0.533-0.357 0.723-0.451c0.189-0.076 0.399-0.131 0.59-0.227 c0.172-0.074 0.324-0.17 0.477-0.225c0.096-0.039 0.514-0.189 0.78-0.227c0.114-0.02 0.895-0.096 1.027-0.096 c0.019 0 0.5 0 0.9 0.039c0.248 0 1.2 0.1 1.4 0.188c0.133 0 0.3 0.1 0.4 0.1 c0.17 0 0.3 0.1 0.5 0.133c0.19 0.1 1.2 0.6 1.3 0.734c0.171 0.1 0.3 0.3 0.5 0.4 c0.096 0.1 0.2 0.2 0.3 0.318c0.152 0.2 0.2 0.2 0.4 0.529c0.076 0.1 0.2 0.2 0.2 0.4 c0.096 0.2 0.3 1.2 0.3 1.188c0.02 0.1 0 0.3 0 0.49c0.019 0.2 0.1 0.4 0.1 0.6 c0.019 0.1 0 0.1 0 0.227c0 0.357-0.057 1.223-0.799 1.318h-1.275c-0.172 0-1.085 0.074-1.294 0.1 c-0.172 0-0.362-0.018-0.553-0.037c-0.171-0.02-0.343-0.037-0.495-0.037c-0.094 0-0.514 0.037-0.609 0 c-0.189 0-1.065-0.037-1.275-0.037c-0.246 0-0.703 0-0.703 0.375c0 0.3 0.7 0.6 1.2 0.6 c0.058 0 0.267-0.018 0.323-0.018s0.362 0 0.4 0.018c0.094 0 0.2 0 0.3 0.02c0.399 0.1 0.4 0.1 1.1 0.1 c0.171 0 1.1 0 1.3 0.02H139.129z M133.114 73.826c0.058-0.074 0.134-0.152 0.191-0.227 c0.113-0.15 0.189-0.32 0.285-0.488c0.285-0.434 0.476-0.416 0.837-0.396h0.438c0.113 0 0.6 0 0.8 0 c0.152 0 0.972-0.057 1.161-0.057c0.096 0 0.6 0 0.7 0.037c0.076 0 0.457-0.018 0.552-0.018c0.19 0 0.6 0 0.6 0.5 c0 0.209-0.115 0.34-0.248 0.416c-0.134 0.074-0.952 0.281-1.123 0.338c-0.209 0.076-0.381 0.17-0.59 0.2 c-0.076 0.02-0.172 0.037-0.248 0.057c-0.113 0.037-0.228 0.074-0.361 0.113c-0.094 0.018-0.19 0.018-0.285 0.1 c-0.076 0.018-0.152 0.057-0.229 0.094c-0.152 0.057-0.686 0.227-0.856 0.264c-0.229 0.057-0.305 0.057-1.048 0 c-0.075 0-0.437 0.02-0.513 0.02c-0.267 0-0.362-0.15-0.362-0.301C132.809 74.4 133.1 73.9 133.1 73.826z M135.475 79.382l0.379-0.037c0.096 0 0.5 0 0.6 0.037c0.382 0 0.552-0.207 0.552-0.357c0-0.113-0.113-0.34-0.457-0.451 c-0.171-0.057-0.646-0.113-0.818-0.113c-0.019 0-0.38 0.057-0.38 0.057h-0.438c-0.342 0-0.818 0.057-0.818 0.5 c0 0.3 0.4 0.4 0.6 0.357c0.114 0 0.229-0.02 0.342-0.02H135.475z"/><path d="M147.276 80.89c-0.059 0.17-0.039 0.377-0.059 0.545c0 0.039-0.038 0.264-0.057 0.4 c-0.02 0.113-0.039 0.227-0.039 0.34c0 0.1 0 0.2 0.1 0.584c0.019 0.2 0 0.4 0 0.6 c0 0.17-0.057 0.924-0.057 1.111v0.15c0.019 0.1 0.1 0.9 0.1 1.057c0 0.1 0 0.471-0.361 0.6 c-0.038 0.02-0.381 0.113-0.514 0.113c-0.172 0-0.99-0.131-1.161-0.131c-0.114 0-0.647 0.094-0.78 0.1 c-0.096 0-0.553-0.037-0.667-0.037c-0.113 0-0.628 0.057-0.761 0.057c-0.838 0-0.838-0.641-0.838-0.98 c0-0.227 0.076-1.318 0.096-1.563c0.019-0.303 0.038-1.188 0.038-1.32c0-0.17-0.076-0.998-0.076-1.186 c0-0.076 0.019-0.094 0.038-0.32c0.019-0.301 0.057-1.207 0.057-1.488c0-0.453-0.076-1.168-0.133-1.619 c-0.076-0.49-0.076-0.547-0.076-0.717c0-0.604 0.171-1.225 0.438-1.432c0.152-0.113 0.457-0.227 0.666-0.227 c0.152 0 0.3 0 0.5 0.057c0.133 0 0.6 0 0.7 0.02c0.058 0 0.19-0.02 0.343-0.02c0.152-0.02 0.305-0.02 0.362-0.02 h0.228h0.076c0.039 0 0.1 0 0.1 0.02h0.096c0.095 0 0.2 0 0.246-0.02h0.248c0.572 0 0.6 0.2 0.7 0.8 c0.02 0.2 0.1 0.2 0.1 0.246c0.058 0 0.076-0.02 0.305-0.283c0.686-0.809 2.019-0.941 2.208-0.941 c0.286 0 0.6 0.1 0.9 0.094c0.229 0 0.6 0 0.7 0.018c0.515 0.1 0.9 0.4 1.2 0.5 c0.533 0.4 0.6 0.5 0.9 1.094c0.037 0.1 0.3 0.5 0.4 0.639c0.021 0.1 0.1 0.4 0.1 0.5 c0.058 0.2 0.1 0.4 0.1 0.604v1.018c0.019 0.4 0.1 0.7 0.1 1.072c0 0.1 0.1 1.4 0.1 1.5 c0 0.244-0.02 0.49-0.058 0.734c-0.096 0.715-0.096 0.791-0.096 1.016c0 0.2 0 0.4 0 0.6 c0.019 0.2 0.1 0.3 0.1 0.529c0.02 0.1 0 0.1 0 0.207c0 0.32-0.171 0.641-0.229 0.7 c-0.133 0.152-0.4 0.209-0.609 0.209c-0.094 0-0.57-0.039-0.666-0.039c-0.133 0-0.8 0.076-0.951 0.1 c-0.059 0-0.229-0.02-0.4-0.037c-0.171 0-0.342-0.02-0.418-0.02c-0.059 0-0.209 0-0.382 0.02c-0.151 0-0.322 0.018-0.38 0 c-0.172 0-0.457-0.018-0.705-0.207c-0.229-0.17-0.285-0.414-0.285-0.641c0-0.15 0.095-0.811 0.115-0.979 c0-0.076-0.021-0.527-0.021-0.641s0.058-0.717 0.058-0.848c0-0.15-0.076-0.828-0.096-0.98v-0.244 c0-0.734-0.323-1.525-0.951-1.525C147.503 80.4 147.3 80.7 147.3 80.89z"/><path d="M167.298 74.597c-0.019-0.207-0.075-0.395-0.075-0.602c0-0.49 0.322-0.848 0.533-0.924 c0.057-0.02 0.418-0.057 0.513-0.057c0.19 0 0.4 0 0.6 0.037c0.076 0 0.6 0 0.7 0 c0.113 0 0.667-0.057 0.8-0.057c0.076 0 0.4 0 0.5 0.02c0.059 0 0.361-0.02 0.42-0.02c0.646 0 0.8 0.4 0.8 0.9 c0 0.2 0 0.395-0.019 0.584c-0.019 0.17-0.058 0.338-0.058 0.508c-0.019 0.094-0.039 0.736-0.039 0.9 c0 0.3 0.1 1.6 0.1 1.883c0 0.377-0.057 2.223-0.057 2.656c0 0.1 0.1 1 0.1 1.1 c0 0.32-0.019 0.641-0.019 0.943c0 0.1 0 0.8 0 0.902c0 0.17-0.037 1.018-0.037 1.2 c0 0.1 0.1 0.5 0.1 0.602c0 0.998-0.457 1.055-0.818 1.055c-0.114 0-0.647-0.037-0.762-0.037 c-0.057 0-0.361 0.02-0.438 0.02c-0.096 0-0.572-0.02-0.686-0.02c-0.076 0-0.323 0.02-0.59 0 c-0.248 0.02-0.495 0.039-0.59 0.039c-0.705 0-0.705-0.264-0.705-0.471c0-0.283-0.019-0.377-0.171-0.377 c-0.134 0-0.248 0.131-0.343 0.225c-0.17 0.207-0.19 0.227-0.779 0.471c-0.4 0.17-0.438 0.17-0.839 0.2 c-0.151 0-0.247 0.02-0.646 0.094c-0.114 0.02-0.229 0.02-0.343 0.02c-0.19 0-0.361-0.02-0.59-0.057 c-0.324-0.037-0.361-0.057-0.8-0.188c-0.285-0.113-0.608-0.17-0.895-0.283c-0.209-0.113-0.399-0.244-0.57-0.395 c-0.153-0.133-0.286-0.283-0.438-0.416c-0.19-0.168-0.381-0.32-0.57-0.488c-0.134-0.133-0.248-0.266-0.362-0.434 c-0.134-0.207-0.247-0.434-0.38-0.641c-0.115-0.15-0.229-0.301-0.324-0.453c-0.229-0.318-0.248-0.414-0.381-0.998 c-0.096-0.414-0.134-0.564-0.134-1.281c0-0.225 0.021-0.432 0.058-0.621c0-0.074 0.248-1.074 0.285-1.188 c0.058-0.225 0.133-0.451 0.248-0.658c0 0 0.324-0.566 0.381-0.658c0.152-0.229 0.989-1.131 1.656-1.564 c0.229-0.152 0.266-0.17 0.608-0.301c0.134-0.039 0.248-0.113 0.381-0.17c0.247-0.076 0.743-0.189 1.142-0.207 c0.135-0.02 0.248-0.02 0.381-0.02c0.248-0.018 0.496-0.057 0.742-0.076c0.267 0 0.8 0 1 0.1 c0.191 0.1 0.2 0.1 0.4 0.096c0.133 0 0.2 0.1 0.4 0.131c0.248 0.1 0.3 0.1 0.4 0.1 c0.267 0 0.267-0.209 0.267-0.322c0.019-0.092 0-0.564 0-0.678V74.597z M165.167 79.779c-0.342 0.037-0.342 0.037-0.666 0.3 c-0.399 0.266-0.59 0.396-0.59 0.867c0 0.2 0.1 0.4 0.2 0.547c0.189 0.3 0.5 0.4 0.7 0.5 c0.247 0.1 0.4 0.1 1 0.15c0.114 0 0.1 0 0.381-0.076c0.248-0.074 0.533-0.113 0.761-0.264 c0.399-0.244 0.399-0.658 0.399-0.979c0-0.037-0.037-0.133-0.094-0.283c-0.115-0.264-0.248-0.545-0.763-0.695 c-0.152-0.039-0.741-0.115-0.895-0.115C165.395 79.7 165.4 79.7 165.2 79.779z"/><path d="M182.432 83.076c0.229-0.039 0.418-0.133 0.647-0.17c0.095-0.02 0.189-0.037 0.285-0.037 c0.419 0 0.7 0.3 0.7 0.602c0 0.113-0.078 0.961-0.078 1.148c0 0.1 0 0.2 0 0.3 c0.019 0.2 0.1 0.6 0.1 0.584c0 0.621-0.42 0.734-0.572 0.771c-0.762 0.207-1.236 0.246-2.455 0.2 c0 0-0.457 0.018-0.494 0.037c-0.115 0-0.724 0.02-0.838 0.02c-0.058 0-0.78-0.057-0.801-0.057 c-0.094-0.02-0.189-0.057-0.304-0.076c-0.133-0.018-0.285-0.018-0.438-0.057c-0.17-0.037-0.322-0.113-0.494-0.15 c-0.19-0.057-0.361-0.057-0.552-0.094c-0.058-0.02-0.685-0.227-0.761-0.244c-0.191-0.076-0.381-0.189-0.572-0.303 c-0.609-0.32-0.762-0.395-1.122-0.715c-0.532-0.453-1.218-1.508-1.428-1.959c-0.077-0.209-0.438-1.188-0.438-1.752 c0-0.246 0-0.961 0.096-1.244c0.02-0.094 0.057-0.17 0.076-0.264c0.057-0.15 0.057-0.301 0.095-0.451 c0.019-0.057 0.172-0.527 0.172-0.547c0.038-0.094 0.399-0.865 0.476-0.941c0.114-0.17 0.268-0.303 0.399-0.453 c0.095-0.094 0.171-0.207 0.247-0.32c0.115-0.131 0.268-0.264 0.4-0.377c0.114-0.074 0.533-0.357 0.724-0.451 c0.19-0.076 0.399-0.131 0.589-0.227c0.172-0.074 0.324-0.17 0.477-0.225c0.096-0.039 0.514-0.189 0.781-0.227 c0.113-0.02 0.894-0.096 1.027-0.096c0.02 0 0.5 0 0.9 0.039c0.247 0 1.2 0.1 1.4 0.2 c0.133 0 0.3 0.1 0.4 0.113c0.173 0 0.3 0.1 0.5 0.133c0.19 0.1 1.2 0.6 1.3 0.7 c0.171 0.1 0.3 0.3 0.5 0.434c0.096 0.1 0.2 0.2 0.3 0.318c0.152 0.2 0.2 0.2 0.4 0.5 c0.078 0.1 0.2 0.2 0.2 0.395c0.096 0.2 0.3 1.2 0.3 1.188c0.019 0.1 0 0.3 0 0.5 c0.02 0.2 0.1 0.4 0.1 0.564c0.02 0.1 0 0.1 0 0.227c0 0.357-0.057 1.223-0.8 1.318h-1.275 c-0.172 0-1.084 0.074-1.293 0.074c-0.173 0-0.363-0.018-0.553-0.037c-0.172-0.02-0.342-0.037-0.496-0.037 c-0.094 0-0.513 0.037-0.608 0.037c-0.19 0-1.065-0.037-1.274-0.037c-0.248 0-0.705 0-0.705 0.4 c0 0.3 0.7 0.6 1.2 0.604c0.057 0 0.266-0.018 0.323-0.018s0.361 0 0.4 0.018c0.094 0 0.2 0 0.3 0 c0.399 0.1 0.4 0.1 1.1 0.057c0.171 0 1.1 0 1.3 0.02H182.432z M178.778 79.382l0.381-0.037 c0.095 0 0.5 0 0.6 0.037c0.381 0 0.551-0.207 0.551-0.357c0-0.113-0.113-0.34-0.455-0.451 c-0.172-0.057-0.648-0.113-0.818-0.113c-0.02 0-0.382 0.057-0.382 0.057h-0.437c-0.344 0-0.82 0.057-0.82 0.5 c0 0.3 0.4 0.4 0.6 0.357c0.115 0 0.229-0.02 0.344-0.02H178.778z"/><path d="M186.28 75.595c0.189 0 0.4 0 0.6 0.02c0.191 0 0.4 0 0.6 0.02h0.095c0.152 0 0.951-0.076 1.123-0.076 c0.096 0 0.5 0 0.5 0.057c0.096 0.1 0.3 0.2 0.3 0.49c0.021 0.1 0.1 0.4 0.2 0.4 c0.076 0 0.152-0.076 0.209-0.133c0.305-0.301 0.344-0.338 0.438-0.414c0.343-0.264 0.801-0.357 1.237-0.377h0.399 c0.058-0.018 0.381-0.037 0.457-0.037c0.591 0 0.7 0.2 0.8 0.357c0.152 0.2 0.2 0.2 0.2 0.9 c0 0.133-0.076 0.793-0.076 0.941c0 0.1 0.1 0.9 0.1 1.037c0 0.527-0.115 0.809-0.191 1 c-0.151 0.396-0.475 0.527-0.799 0.527c-0.134 0-0.553-0.037-0.876-0.131c-0.343-0.076-0.38-0.076-0.513-0.076 c-0.934 0-0.934 0.697-0.934 0.83c0 0.1 0 0.4 0 0.508c0 0.094-0.038 0.547-0.038 0.7 c0 0.1 0.1 0.5 0.1 0.658c0 0.113-0.056 0.697-0.056 0.83c0 0.2 0.1 1.3 0.1 1.6 c0 1.262-0.609 1.262-0.914 1.262c-0.229 0-1.334-0.074-1.58-0.074c-0.19 0-0.381 0-0.552 0 c-0.515 0.076-0.647 0.094-0.763 0.094c-0.476 0-0.988-0.131-1.16-0.564c-0.037-0.133-0.076-0.471-0.076-0.604 c0 0 0.039-0.377 0.057-0.564c0.02-0.17 0.02-0.357 0.038-0.547c0.038-0.338 0.038-0.49 0.038-0.961 c0-0.055-0.038-1.129-0.038-1.205c0-0.131-0.038-0.697-0.038-0.828c0-0.207 0.076-1.299 0.076-1.545 c0-0.283-0.018-0.584-0.038-0.867c-0.038-0.395-0.114-1.451-0.114-1.939C185.213 75.6 185.9 75.6 186.3 75.595z"/><path d="M202.76 73.072c0.19 0 0.3 0 0.4 0.057c0.019 0 0.4 0.2 0.4 0.867c0 0.094-0.038 0.641-0.038 0.8 c-0.02 0.3 0 0.547-0.02 0.83c-0.019 0.131-0.039 0.264-0.039 0.396c0 0.1 0.1 0.4 0.1 0.5 c0.018 0.1 0 0.4 0 0.508c0 0.1 0 0.7 0 0.773c0 0.15-0.094 0.846-0.094 0.998c0 0.1 0 0.4 0 0.5 c0.019 0.1 0 0.1 0 0.338c0 0.1 0 0.5 0 0.604c0 0.113-0.059 0.66-0.059 0.8 c0 0.1 0.1 0.8 0.1 0.998c0 0.113-0.038 0.736-0.038 0.887c0 0 0 0.3 0 0.377s-0.019 0.375-0.019 0.451v0.02 c0.019 0.4 0.1 0.8 0.2 1.223v0.189c0 0.527-0.19 0.828-0.249 0.885c-0.075 0.096-0.285 0.246-0.437 0.3 c-0.076 0.02-0.495 0.037-0.552 0.037h-0.172c-0.039 0-0.951-0.037-1.009-0.037c-0.19 0-1.122 0.076-1.352 0.1 c-0.171 0-0.704 0-1.065-0.416c-0.114-0.111-0.248-0.281-0.248-0.846c0-0.076 0.038-1.074 0.038-1.113 c0.021-0.281 0.058-0.584 0.076-0.865c0-0.207 0.02-0.734 0.02-0.943c0-0.057-0.02-0.357-0.02-0.432 c0-0.057 0.038-0.434 0.038-0.51c0-0.15-0.057-0.922-0.057-1.092s0.076-0.98 0.076-1.168c0-0.189-0.058-1.074-0.058-1.281 c0-0.189 0.02-1.188 0.02-1.412c0-0.094 0.038-0.564 0.038-0.678c0-0.096-0.02-0.189-0.02-0.283 c-0.019-0.17-0.094-1.037-0.094-1.168c0-0.094 0.018-0.189 0.056-0.357c0.077-0.246 0.19-0.68 0.704-0.754 c0.076-0.02 0.4 0 0.5 0c0.038 0 0.285-0.02 0.323-0.02s0.229 0 0.3 0.02c0.057 0 0.362-0.02 0.42-0.02 c0.133 0 0.8 0.1 0.9 0.057C201.961 73.1 202.6 73.1 202.8 73.072z"/><path d="M214.602 79.119c-0.096 0.414-0.134 0.471-0.361 1.094c-0.076 0.205-0.152 0.414-0.209 0.6 c-0.115 0.301-0.781 1.77-0.895 2.127c-0.097 0.32-0.172 0.678-0.287 1.018c-0.037 0.133-0.076 0.264-0.133 0.4 c-0.095 0.303-0.171 0.604-0.267 0.906c-0.076 0.207-0.076 0.225-0.19 0.471c-0.095 0.207-0.152 0.432-0.266 0.6 c-0.039 0.039-0.457 0.566-0.609 0.717c-0.457 0.396-0.609 0.527-1.047 0.678c-0.457 0.15-0.628 0.15-1.447 0.133h-0.97 c-0.114 0-0.667 0.037-0.78 0.037c-0.248 0-0.495-0.02-0.743-0.02c-0.343 0-0.608-0.018-0.913-0.264 c-0.305-0.225-0.344-0.488-0.344-0.791c0-0.094 0.039-0.641 0.039-0.771c0-0.17-0.039-0.867-0.039-1.037 c0-0.131 0.058-0.697 0.172-0.941c0.115-0.227 0.324-0.414 0.59-0.414c0.114 0 0.6 0.2 0.8 0.2 c0.285 0 0.285-0.246 0.285-0.283s-0.056-0.434-0.398-1.018c-0.19-0.34-0.229-0.434-0.382-0.885 c-0.075-0.246-0.171-0.49-0.285-0.717c-0.113-0.281-0.266-0.527-0.381-0.791c-0.076-0.15-0.457-1.055-0.59-1.432 c-0.037-0.131-0.076-0.264-0.133-0.395c-0.152-0.434-0.4-0.83-0.59-1.244c-0.076-0.17-0.172-0.377-0.172-0.715 c0-0.322 0.058-0.377 0.152-0.471c0.248-0.264 0.381-0.359 1.447-0.359c0.113 0 0.7 0.1 0.8 0.076h0.323 c0.172 0 1.028-0.057 1.218-0.057c0.516 0 0.7 0.2 0.7 0.34c0.191 0.3 0.4 0.8 0.5 1.2 c0.02 0.1 0 0.2 0.1 0.32c0.038 0.1 0.1 0.3 0.2 0.471c0.172 0.5 0.3 1.3 0.3 1.5 c0.038 0.2 0.1 0.5 0.1 0.473c0.039 0 0.076-0.059 0.096-0.096c0.037-0.037 0.037-0.076 0.076-0.414 c0.058-0.453 0.191-1.092 0.343-1.525c0.228-0.623 0.38-1.15 0.399-1.301c0.038-0.225 0.02-0.453 0.152-0.641 c0.19-0.301 0.533-0.301 0.686-0.301c0.019 0 0.4 0 0.6 0.018c0.038 0 0.4 0.1 0.5 0.1 c0.229 0 1.428-0.096 1.428-0.096s0.57 0 0.8 0.096c0.059 0 0.5 0.2 0.5 0.695c0 0.227-0.076 0.434-0.134 0.6 c-0.229 0.584-0.247 0.66-0.322 1.018C214.831 78.3 214.7 78.7 214.6 79.119z"/><path d="M215.969 75.917c0.076-0.322 0.361-0.453 0.571-0.529c0.552-0.244 0.8-0.357 1.179-0.678 c0.154-0.113 0.306-0.244 0.458-0.357c0.114-0.094 0.229-0.17 0.343-0.264c0.189-0.15 0.495-0.453 0.723-0.697 c0.096-0.094 0.21-0.207 0.324-0.264c0.133-0.057 0.247-0.057 1.256-0.057c0.133 0 0.2 0 0.4 0 c0.361 0.1 0.4 0.2 0.4 1.223c0 0.076-0.019 0.453-0.019 0.527c0 0.7 0.4 0.7 0.6 0.7 c0.075 0 0.437-0.02 0.513-0.02h0.287c0.418 0 0.5 0.3 0.5 0.49c0 0.113-0.058 0.641-0.058 0.8 c0 0.1 0 0.5 0 0.604c0 0.076-0.059 0.434-0.059 0.51c0 0.1 0.1 0.5 0.1 0.6 c0 0.564-0.571 0.602-0.762 0.602c-0.076 0-0.477-0.037-0.57-0.037c-0.42 0-0.515 0.188-0.515 0.5 c0 0.1 0 0.4 0 0.434c0 0.074-0.037 0.453-0.037 0.547c0 0.1 0 0.5 0 0.5 c0 0.094-0.037 0.582-0.037 0.695c0 0.5 0.1 0.7 0.4 0.697c0.076 0 0.38-0.037 0.456-0.037 c0.039 0 0.2 0 0.2 0.018c0.019 0 0.151-0.018 0.171-0.018c0.189 0 0.6 0.1 0.6 0.5 c0 0.096-0.057 0.547-0.057 0.641c0 0.1 0 0.3 0 0.434c0.021 0.1 0.1 0.3 0.1 0.5 c0 0.076-0.059 0.453-0.059 0.529c0 0.1 0 0.3 0 0.357c0 0.131-0.039 0.547-0.4 0.8 c-0.094 0.055-0.457 0.188-0.627 0.225c-0.039 0-1.181 0.113-1.408 0.113c-0.096 0-0.21 0-0.324 0 c-0.058 0-0.361 0.018-0.438 0.018c-0.381 0-0.457 0-0.838-0.074c-0.152-0.037-0.323-0.037-0.495-0.057 c-0.114-0.02-0.761-0.189-0.876-0.227c0 0-0.399-0.207-0.438-0.207c-0.02-0.018-0.438-0.395-0.475-0.451 c-0.268-0.34-0.268-1.32-0.268-1.695c0-0.152 0.038-0.885 0.038-1.055c0-0.172-0.058-1.057-0.058-1.244 c0-0.244 0.076-1.414 0.076-1.678c0-0.734-0.171-0.809-0.304-0.865c-0.095-0.037-0.21-0.037-0.304-0.076 c-0.078-0.037-0.306-0.15-0.306-0.488c0-0.094 0.058-0.51 0.058-0.604c0-0.076-0.039-0.471-0.058-0.564 c0-0.076 0.019-0.416 0.019-0.49c0-0.057-0.019-0.283-0.019-0.32S215.969 76 216 75.917z"/><path d="M224.264 75.917c0.075-0.322 0.361-0.453 0.57-0.529c0.552-0.244 0.8-0.357 1.18-0.678 c0.152-0.113 0.305-0.244 0.457-0.357c0.114-0.094 0.229-0.17 0.343-0.264c0.19-0.15 0.495-0.453 0.724-0.697 c0.095-0.094 0.209-0.207 0.324-0.264c0.133-0.057 0.246-0.057 1.255-0.057c0.134 0 0.2 0 0.4 0 c0.361 0.1 0.4 0.2 0.4 1.223c0 0.076-0.019 0.453-0.019 0.527c0 0.7 0.4 0.7 0.6 0.7 c0.076 0 0.438-0.02 0.514-0.02h0.286c0.419 0 0.5 0.3 0.5 0.49c0 0.113-0.058 0.641-0.058 0.8 c0 0.1 0 0.5 0 0.604c0 0.076-0.057 0.434-0.057 0.51c0 0.1 0.1 0.5 0.1 0.6 c0 0.564-0.57 0.602-0.761 0.602c-0.075 0-0.476-0.037-0.57-0.037c-0.42 0-0.515 0.188-0.515 0.5 c0 0.1 0 0.4 0 0.434c0 0.074-0.037 0.453-0.037 0.547c0 0.1 0 0.5 0 0.5 c0 0.094-0.037 0.582-0.037 0.695c0 0.5 0.1 0.7 0.4 0.697c0.076 0 0.381-0.037 0.456-0.037 c0.038 0 0.2 0 0.2 0.018c0.019 0 0.152-0.018 0.17-0.018c0.191 0 0.6 0.1 0.6 0.5 c0 0.096-0.058 0.547-0.058 0.641c0 0.1 0 0.3 0 0.434c0.02 0.1 0.1 0.3 0.1 0.451c0 0.076-0.057 0.453-0.057 0.5 c0 0.1 0 0.3 0 0.357c0 0.131-0.038 0.547-0.399 0.754c-0.095 0.055-0.457 0.188-0.628 0.2 c-0.038 0-1.181 0.113-1.409 0.113c-0.094 0-0.209 0-0.323 0.02c-0.058 0-0.362 0.018-0.438 0.018c-0.38 0-0.456 0-0.837-0.074 c-0.152-0.037-0.323-0.037-0.495-0.057c-0.114-0.02-0.761-0.189-0.875-0.227c0 0-0.4-0.207-0.438-0.207 c-0.02-0.018-0.438-0.395-0.477-0.451c-0.266-0.34-0.266-1.32-0.266-1.695c0-0.152 0.037-0.885 0.037-1.055 c0-0.172-0.057-1.057-0.057-1.244c0-0.244 0.076-1.414 0.076-1.678c0-0.734-0.172-0.809-0.305-0.865 c-0.095-0.037-0.209-0.037-0.305-0.076c-0.076-0.037-0.305-0.15-0.305-0.488c0-0.094 0.058-0.51 0.058-0.604 c0-0.076-0.038-0.471-0.058-0.564c0-0.076 0.02-0.416 0.02-0.49c0-0.057-0.02-0.283-0.02-0.32S224.264 76 224.3 75.917z"/><path d="M241.548 83.076c0.228-0.039 0.419-0.133 0.647-0.17c0.095-0.02 0.189-0.037 0.285-0.037 c0.419 0 0.7 0.3 0.7 0.602c0 0.113-0.076 0.961-0.076 1.148c0 0.1 0 0.2 0 0.3 c0.019 0.2 0.1 0.6 0.1 0.584c0 0.621-0.418 0.734-0.57 0.771c-0.762 0.207-1.237 0.246-2.455 0.2 c0 0-0.457 0.018-0.495 0.037c-0.114 0-0.724 0.02-0.839 0.02c-0.057 0-0.779-0.057-0.799-0.057 c-0.095-0.02-0.189-0.057-0.305-0.076c-0.133-0.018-0.285-0.018-0.438-0.057c-0.171-0.037-0.322-0.113-0.495-0.15 c-0.19-0.057-0.36-0.057-0.552-0.094c-0.057-0.02-0.686-0.227-0.761-0.244c-0.19-0.076-0.381-0.189-0.571-0.303 c-0.609-0.32-0.762-0.395-1.123-0.715c-0.533-0.453-1.218-1.508-1.428-1.959c-0.076-0.209-0.438-1.188-0.438-1.752 c0-0.246 0-0.961 0.096-1.244c0.019-0.094 0.057-0.17 0.076-0.264c0.056-0.15 0.056-0.301 0.094-0.451 c0.02-0.057 0.172-0.527 0.172-0.547c0.037-0.094 0.399-0.865 0.477-0.941c0.113-0.17 0.267-0.303 0.399-0.453 c0.095-0.094 0.171-0.207 0.247-0.32c0.114-0.131 0.267-0.264 0.4-0.377c0.113-0.074 0.532-0.357 0.723-0.451 c0.191-0.076 0.4-0.131 0.59-0.227c0.172-0.074 0.324-0.17 0.477-0.225c0.095-0.039 0.514-0.189 0.779-0.227 c0.115-0.02 0.895-0.096 1.028-0.096c0.019 0 0.5 0 0.9 0.039c0.248 0 1.2 0.1 1.4 0.2 c0.133 0 0.3 0.1 0.4 0.113c0.173 0 0.3 0.1 0.5 0.133c0.19 0.1 1.2 0.6 1.3 0.7 c0.17 0.1 0.3 0.3 0.5 0.434c0.096 0.1 0.2 0.2 0.3 0.318c0.151 0.2 0.2 0.2 0.4 0.5 c0.076 0.1 0.2 0.2 0.2 0.395c0.096 0.2 0.3 1.2 0.3 1.188c0.019 0.1 0 0.3 0 0.5 c0.019 0.2 0.1 0.4 0.1 0.564c0.02 0.1 0 0.1 0 0.227c0 0.357-0.057 1.223-0.799 1.318h-1.275 c-0.172 0-1.085 0.074-1.295 0.074c-0.172 0-0.361-0.018-0.552-0.037c-0.171-0.02-0.342-0.037-0.495-0.037 c-0.096 0-0.514 0.037-0.609 0.037c-0.189 0-1.064-0.037-1.275-0.037c-0.246 0-0.704 0-0.704 0.4 c0 0.3 0.7 0.6 1.2 0.604c0.058 0 0.267-0.018 0.323-0.018c0.058 0 0.4 0 0.4 0.018c0.095 0 0.2 0 0.3 0 c0.399 0.1 0.4 0.1 1.1 0.057c0.17 0 1.1 0 1.3 0.02H241.548z M237.894 79.382l0.381-0.037 c0.095 0 0.5 0 0.6 0.037c0.381 0 0.553-0.207 0.553-0.357c0-0.113-0.113-0.34-0.457-0.451 c-0.172-0.057-0.646-0.113-0.818-0.113c-0.02 0-0.381 0.057-0.381 0.057h-0.438c-0.343 0-0.818 0.057-0.818 0.5 c0 0.3 0.4 0.4 0.6 0.357c0.113 0 0.229-0.02 0.342-0.02H237.894z"/><path d="M245.678 75.595c0.189 0 0.4 0 0.6 0.02c0.19 0 0.4 0 0.6 0.02h0.095c0.151 0 0.951-0.076 1.122-0.076 c0.096 0 0.5 0 0.5 0.057c0.095 0.1 0.3 0.2 0.3 0.49c0.021 0.1 0.1 0.4 0.2 0.4 c0.076 0 0.152-0.076 0.21-0.133c0.304-0.301 0.343-0.338 0.437-0.414c0.344-0.264 0.801-0.357 1.238-0.377h0.398 c0.059-0.018 0.382-0.037 0.458-0.037c0.59 0 0.7 0.2 0.8 0.357c0.153 0.2 0.2 0.2 0.2 0.9 c0 0.133-0.076 0.793-0.076 0.941c0 0.1 0.1 0.9 0.1 1.037c0 0.527-0.115 0.809-0.19 1 c-0.152 0.396-0.476 0.527-0.8 0.527c-0.133 0-0.552-0.037-0.875-0.131c-0.344-0.076-0.381-0.076-0.514-0.076 c-0.934 0-0.934 0.697-0.934 0.83c0 0.1 0 0.4 0 0.508c0 0.094-0.038 0.547-0.038 0.7 c0 0.1 0.1 0.5 0.1 0.658c0 0.113-0.057 0.697-0.057 0.83c0 0.2 0.1 1.3 0.1 1.6 c0 1.262-0.609 1.262-0.914 1.262c-0.229 0-1.333-0.074-1.58-0.074c-0.19 0-0.381 0-0.551 0 c-0.515 0.076-0.648 0.094-0.764 0.094c-0.475 0-0.988-0.131-1.16-0.564c-0.037-0.133-0.076-0.471-0.076-0.604 c0 0 0.039-0.377 0.058-0.564c0.019-0.17 0.019-0.357 0.037-0.547c0.038-0.338 0.038-0.49 0.038-0.961 c0-0.055-0.038-1.129-0.038-1.205c0-0.131-0.037-0.697-0.037-0.828c0-0.207 0.075-1.299 0.075-1.545 c0-0.283-0.019-0.584-0.038-0.867c-0.037-0.395-0.113-1.451-0.113-1.939C244.613 75.6 245.3 75.6 245.7 75.595z"/></g></g></g></svg>