<?xml version="1.0" standalone="no"?>
<!DOCTYPE svg PUBLIC "-//W3C//DTD SVG 20010904//EN"
 "http://www.w3.org/TR/2001/REC-SVG-20010904/DTD/svg10.dtd">
<svg version="1.0" xmlns="http://www.w3.org/2000/svg"
 width="1520.000000pt" height="1760.000000pt" viewBox="0 0 1520.000000 1760.000000"
 preserveAspectRatio="xMidYMid meet">
<metadata>
Created by potrace 1.13, written by Peter Selinger 2001-2015
</metadata>
<g transform="translate(0.000000,1760.000000) scale(0.100000,-0.100000)"
fill="#2c3e50" stroke="none">
<path d="M7533 17236 l-28 -24 -3 -195 c-3 -191 -4 -195 -25 -201 -12 -3 -101
-6 -198 -6 -166 0 -177 -1 -195 -21 -29 -32 -26 -101 6 -128 23 -19 38 -20
205 -21 99 0 186 -4 193 -9 10 -6 12 -43 10 -156 l-3 -148 -68 -22 c-185 -63
-290 -200 -273 -358 7 -66 26 -113 62 -152 29 -31 29 -37 6 -58 -32 -29 -22
-34 -206 108 -33 25 -63 45 -68 45 -4 0 -8 7 -8 15 0 8 -9 15 -20 15 -12 0
-33 6 -48 14 -198 102 -445 61 -588 -98 -30 -34 -64 -80 -75 -103 -23 -48 -26
-49 -124 -28 -82 17 -241 20 -317 5 -84 -17 -193 -77 -246 -135 -45 -49 -109
-163 -132 -235 -21 -66 -24 -266 -6 -375 31 -179 117 -391 221 -540 25 -35 45
-68 45 -73 0 -5 26 -37 57 -71 52 -55 61 -61 97 -61 56 0 117 -18 139 -41 10
-10 22 -19 27 -19 6 0 10 -6 10 -14 0 -8 6 -16 13 -19 20 -7 83 -143 96 -205
6 -31 11 -160 11 -312 l0 -260 23 0 c1153 -3 2953 2 2958 7 4 5 9 132 11 283
3 258 5 279 27 340 12 36 26 67 29 70 4 3 15 22 24 43 10 21 25 40 33 43 8 4
13 9 11 13 -11 17 68 54 140 64 75 11 76 12 123 67 27 30 69 87 94 125 25 39
56 80 67 93 12 13 19 26 16 29 -3 3 7 29 23 57 15 28 40 83 56 121 15 39 33
84 40 100 36 85 56 344 36 475 -17 111 -77 229 -155 305 -104 101 -202 135
-376 134 -58 0 -127 -4 -155 -10 -131 -24 -118 -27 -144 29 -40 86 -140 175
-241 216 -25 10 -55 23 -67 29 -33 15 -241 2 -278 -17 -16 -9 -36 -16 -43 -16
-7 0 -24 -7 -37 -16 -14 -9 -25 -13 -25 -9 0 3 -8 -1 -17 -11 -10 -9 -40 -32
-68 -50 -27 -18 -95 -69 -150 -113 -55 -44 -120 -91 -145 -103 -25 -13 -52
-28 -60 -34 -8 -6 -27 -14 -42 -18 -21 -5 -30 -2 -38 14 -14 26 -4 36 78 80
135 72 200 184 189 326 -7 74 -20 104 -79 171 -41 47 -165 123 -202 123 -8 0
-26 5 -40 11 l-25 12 4 145 c2 79 7 147 10 151 4 3 92 8 197 11 185 5 190 6
209 29 29 36 25 94 -7 120 -24 19 -40 21 -174 21 -81 0 -167 3 -191 6 l-44 6
-1 178 c0 117 -5 188 -13 208 -23 55 -100 69 -148 28z m-657 -1662 c21 -10 95
-57 164 -103 128 -86 238 -143 300 -156 66 -13 70 -15 70 -45 0 -21 -8 -35
-27 -47 -106 -68 -140 -184 -79 -271 30 -44 29 -72 -3 -72 -28 0 -117 -88
-140 -140 -29 -63 -28 -150 3 -215 26 -56 63 -92 143 -137 29 -16 56 -34 59
-39 10 -16 -78 -90 -145 -122 -51 -24 -76 -30 -131 -30 -59 0 -76 5 -131 36
-98 55 -116 83 -80 129 11 13 34 53 52 88 29 57 33 75 33 145 0 64 -4 89 -23
124 -46 88 -132 143 -243 157 l-58 7 -26 56 c-81 174 -112 328 -92 458 14 91
81 174 153 192 57 14 155 7 201 -15z m1633 20 c17 -4 42 -17 56 -30 14 -13 30
-24 35 -24 15 0 47 -64 65 -132 17 -63 17 -125 1 -213 -11 -63 -37 -150 -50
-165 -7 -8 -21 -41 -30 -72 -10 -31 -23 -61 -29 -66 -7 -5 -39 -13 -72 -17
-101 -12 -180 -63 -234 -151 -48 -79 -29 -226 45 -335 40 -60 38 -88 -10 -123
-63 -48 -118 -69 -181 -69 -60 0 -135 18 -135 33 0 4 -11 11 -24 14 -36 9
-119 88 -112 106 4 8 30 27 59 43 46 24 85 56 130 107 41 47 45 164 8 243 -26
55 -45 75 -108 116 -29 18 -53 39 -53 46 0 7 12 34 26 60 22 39 26 55 21 96
-8 63 -40 121 -80 144 -89 51 -92 86 -9 104 67 14 147 47 207 83 28 18 58 31
68 30 9 0 17 5 17 12 0 14 76 70 109 81 11 3 21 10 21 15 0 12 74 51 115 61
39 9 104 11 144 3z m-2414 -165 c5 -5 17 -9 27 -9 23 0 34 -24 43 -90 3 -30
12 -68 20 -85 7 -16 17 -48 21 -70 4 -22 10 -42 13 -45 3 -3 25 -43 48 -90 24
-47 67 -117 97 -157 60 -79 60 -86 20 -158 -18 -34 -21 -53 -19 -132 2 -61 7
-97 16 -107 8 -8 25 -30 38 -48 23 -32 113 -109 128 -109 4 0 24 -9 43 -19 19
-9 48 -23 64 -29 l29 -12 -24 -25 c-23 -25 -72 -55 -85 -53 -4 0 -10 -5 -15
-13 -14 -22 -171 -15 -249 12 -36 12 -69 27 -75 34 -5 6 -26 18 -45 27 l-35
16 0 119 c0 102 -3 123 -20 149 -46 70 -127 111 -233 121 -78 7 -102 24 -102
71 0 13 -4 23 -8 23 -10 0 -34 77 -57 180 -17 76 -20 240 -4 290 5 19 12 42
14 50 18 76 91 154 156 167 50 11 179 5 194 -8z m3237 -10 c52 -26 96 -84 118
-158 25 -79 27 -239 5 -347 -18 -84 -70 -228 -88 -242 -7 -5 -39 -12 -72 -15
-123 -13 -197 -54 -237 -129 -19 -37 -22 -58 -21 -148 1 -120 6 -112 -102
-164 -160 -78 -312 -70 -397 21 -28 30 -19 39 68 73 78 31 171 117 205 189 34
73 29 169 -12 247 l-33 61 35 43 c19 24 46 56 61 72 14 15 25 28 23 28 -3 0
15 40 40 88 48 97 88 215 105 307 5 32 14 63 20 69 18 18 124 35 185 29 33 -3
76 -14 97 -24z"/>
<path d="M7550 12780 c-80 -5 -172 -13 -205 -20 -33 -6 -76 -13 -95 -16 -19
-3 -44 -9 -55 -14 -11 -4 -63 -23 -115 -41 -128 -43 -307 -139 -368 -196 -7
-7 -18 -13 -24 -13 -6 0 -39 -27 -73 -61 -35 -34 -73 -66 -86 -73 -12 -6 -31
-26 -41 -45 -11 -18 -27 -41 -37 -50 -51 -45 -150 -196 -211 -320 -51 -106
-77 -185 -111 -341 -26 -121 -30 -153 -29 -308 0 -148 4 -193 26 -300 14 -70
39 -162 55 -206 16 -44 29 -88 29 -97 0 -10 4 -19 9 -21 5 -1 21 -28 36 -58
15 -30 47 -85 71 -121 24 -37 44 -71 44 -77 0 -6 4 -12 9 -14 5 -1 36 -36 69
-76 98 -117 200 -210 302 -276 25 -16 56 -37 70 -46 41 -28 190 -97 267 -124
190 -67 359 -91 573 -83 134 5 287 27 335 47 11 5 36 12 55 16 19 3 59 17 89
30 29 13 59 24 66 24 8 0 15 4 17 8 2 4 32 23 68 41 89 44 142 74 156 86 6 6
34 28 63 50 117 91 257 240 350 375 30 43 134 261 151 315 7 22 16 49 20 60
31 81 36 102 54 246 20 152 21 263 3 389 -15 108 -55 274 -83 345 -24 60 -86
188 -101 205 -7 9 -24 37 -38 64 -75 142 -302 367 -475 474 -140 86 -353 170
-485 191 -38 7 -88 17 -110 22 -62 16 -89 17 -245 9z"/>
<path d="M4470 10966 c-121 -24 -262 -77 -327 -123 -17 -13 -34 -23 -38 -23
-14 0 -92 -60 -152 -117 -98 -92 -161 -179 -220 -303 -79 -165 -81 -171 -86
-215 -3 -22 -10 -58 -16 -80 -22 -81 -8 -297 29 -445 6 -25 14 -55 17 -68 3
-12 9 -25 14 -28 5 -3 9 -16 9 -29 0 -13 4 -25 8 -27 5 -1 25 -37 45 -79 20
-42 54 -96 74 -120 20 -24 543 -551 1162 -1171 l1124 -1127 -29 -33 c-17 -18
-528 -530 -1136 -1138 -608 -608 -1118 -1125 -1133 -1150 -16 -25 -31 -47 -35
-50 -14 -10 -89 -176 -109 -240 -38 -125 -54 -253 -48 -374 4 -61 14 -136 22
-166 8 -30 12 -62 9 -72 -3 -10 -1 -18 4 -18 5 0 17 -24 27 -52 9 -29 40 -95
68 -147 29 -52 53 -98 53 -103 1 -4 2 -12 3 -18 0 -5 5 -10 10 -10 6 0 50 -40
98 -88 124 -125 253 -208 412 -264 103 -37 182 -48 329 -48 159 0 293 23 391
67 31 13 64 25 74 26 9 1 17 4 17 8 0 3 36 27 81 53 44 26 99 64 121 84 23 20
538 533 1145 1139 607 607 1108 1103 1112 1103 12 0 41 -35 41 -48 0 -7 6 -12
12 -12 7 0 510 -497 1118 -1104 1073 -1072 1172 -1166 1251 -1191 10 -4 19
-13 19 -21 0 -8 10 -14 26 -14 14 0 40 -6 57 -14 122 -53 189 -67 356 -73 148
-5 263 5 316 28 11 4 40 13 65 19 53 13 158 62 217 102 23 15 45 28 48 28 21
0 171 143 226 215 13 17 26 32 29 35 16 15 90 149 106 192 57 155 72 223 80
348 10 156 -12 318 -56 425 -30 73 -88 186 -122 238 -28 42 -400 422 -1167
1189 -619 620 -1127 1134 -1129 1142 -2 7 504 521 1132 1149 625 625 1136
1143 1136 1151 0 8 6 19 14 23 39 22 176 331 176 396 0 9 3 17 8 17 12 0 14
261 1 340 -6 41 -12 91 -13 110 0 19 -7 39 -13 43 -7 4 -13 17 -13 27 0 21
-50 137 -95 219 -56 102 -191 242 -315 327 -101 69 -282 141 -414 164 -167 29
-410 3 -557 -60 -39 -16 -76 -30 -82 -30 -6 0 -19 -7 -29 -17 -20 -18 -50 -36
-85 -52 -13 -6 -23 -15 -23 -21 0 -5 -6 -10 -13 -10 -8 0 -30 -15 -49 -32 -20
-18 -42 -38 -50 -44 -7 -7 -506 -505 -1108 -1108 -602 -603 -1101 -1095 -1108
-1094 -7 2 -522 512 -1145 1133 -951 950 -1146 1140 -1218 1188 -47 31 -95 57
-105 57 -11 0 -28 6 -39 13 -25 16 -91 41 -170 62 -80 22 -355 29 -445 11z"/>
<path d="M10674 7900 c-27 -27 -54 -50 -61 -50 -7 0 -13 -6 -13 -13 0 -16 -47
-61 -72 -70 -10 -4 -18 -12 -18 -20 0 -16 -41 -57 -58 -57 -7 0 -12 -6 -12
-13 0 -16 -47 -61 -72 -70 -10 -4 -18 -12 -18 -20 0 -16 -41 -57 -58 -57 -7 0
-12 -6 -12 -13 0 -16 -47 -61 -72 -70 -10 -4 -18 -12 -18 -20 0 -16 -41 -57
-58 -57 -7 0 -12 -6 -12 -13 0 -16 -47 -61 -72 -70 -10 -4 -18 -12 -18 -20 0
-16 -41 -57 -58 -57 -7 0 -12 -6 -12 -13 0 -7 -38 -50 -85 -96 -47 -46 -85
-88 -85 -93 0 -5 337 -347 750 -760 428 -429 747 -755 743 -762 -3 -6 -2 -8 2
-3 11 10 86 -63 78 -76 -3 -6 -2 -7 4 -4 8 5 268 -252 364 -360 140 -160 251
-399 315 -678 21 -94 30 -366 15 -475 -13 -100 -58 -286 -75 -315 -7 -11 -18
-40 -26 -65 -25 -81 -123 -265 -156 -295 -7 -5 -18 -22 -25 -36 -28 -52 -114
-148 -129 -143 -8 3 -12 2 -8 -1 11 -11 -50 -78 -132 -147 -171 -142 -393
-253 -625 -312 -98 -25 -332 -49 -410 -42 -160 14 -219 22 -305 42 -88 21
-164 45 -170 55 -3 4 -19 10 -36 13 -17 3 -71 26 -120 51 -186 94 -331 204
-459 347 -33 37 -63 67 -67 67 -4 1 -393 386 -864 857 l-856 856 -47 -45 c-25
-24 -54 -47 -63 -50 -10 -4 -18 -12 -18 -20 0 -16 -41 -57 -58 -57 -7 0 -12
-6 -12 -13 0 -16 -47 -61 -72 -70 -10 -4 -18 -12 -18 -20 0 -16 -41 -57 -58
-57 -7 0 -12 -6 -12 -13 0 -16 -47 -61 -72 -70 -10 -4 -18 -12 -18 -20 0 -16
-41 -57 -58 -57 -7 0 -12 -6 -12 -13 0 -16 -47 -61 -72 -70 -10 -4 -18 -12
-18 -20 0 -16 -41 -57 -58 -57 -7 0 -12 -6 -12 -13 0 -16 -47 -61 -72 -70 -10
-4 -18 -12 -18 -20 0 -16 -41 -57 -58 -57 -7 0 -12 -6 -12 -13 0 -16 -47 -61
-72 -70 -10 -4 -18 -12 -18 -20 0 -16 -41 -57 -58 -57 -7 0 -12 -6 -12 -13 0
-16 -47 -61 -72 -70 -10 -4 -18 -12 -18 -20 0 -16 -41 -57 -58 -57 -7 0 -12
-6 -12 -13 0 -16 -47 -61 -72 -70 -10 -4 -18 -12 -18 -20 0 -16 -41 -57 -58
-57 -7 0 -12 -6 -12 -13 0 -16 -47 -61 -72 -70 -10 -4 -18 -12 -18 -20 0 -16
-41 -57 -58 -57 -7 0 -12 -6 -12 -13 0 -16 -47 -61 -72 -70 -10 -4 -18 -12
-18 -20 0 -16 -41 -57 -58 -57 -7 0 -12 -6 -12 -13 0 -16 -47 -61 -72 -70 -10
-4 -18 -12 -18 -20 0 -16 -41 -57 -58 -57 -7 0 -12 -6 -12 -14 0 -13 -141
-147 -163 -155 -6 -2 -18 -12 -27 -22 -45 -51 -262 -174 -395 -225 -70 -26
-226 -69 -285 -78 -142 -22 -271 -28 -375 -17 -167 18 -245 32 -245 42 0 6 -5
7 -10 4 -11 -7 -112 20 -145 38 -11 6 -24 11 -30 12 -60 2 -415 205 -415 237
0 4 -6 8 -12 8 -11 0 -202 190 -242 240 -42 52 -65 88 -61 93 3 4 2 5 -2 2
-17 -13 -168 287 -202 401 -93 314 -91 636 4 939 31 96 149 340 181 372 12 12
25 30 28 40 3 10 22 35 41 56 19 21 35 41 35 45 0 4 434 441 964 971 764 762
963 967 958 981 -4 10 -23 31 -42 47 -20 15 -224 216 -453 446 -272 272 -424
417 -437 417 -27 0 -278 -65 -460 -120 -36 -10 -150 -46 -253 -80 -104 -33
-199 -61 -212 -62 -13 -1 -22 -4 -19 -7 2 -2 -94 -41 -213 -86 -120 -45 -239
-92 -265 -104 -26 -11 -49 -21 -52 -21 -3 0 -43 -17 -88 -38 -46 -22 -117 -54
-158 -73 -105 -48 -601 -307 -610 -318 -3 -4 -48 -33 -100 -65 -193 -119 -336
-219 -498 -348 -68 -54 -132 -98 -142 -98 -11 0 -20 -6 -20 -14 0 -8 -24 -36
-52 -63 -184 -169 -368 -365 -502 -533 -37 -47 -127 -173 -160 -225 -21 -33
-46 -71 -55 -85 -10 -14 -37 -63 -61 -110 -24 -47 -47 -92 -51 -100 -78 -152
-121 -272 -199 -560 -48 -173 -62 -651 -27 -858 52 -303 148 -573 299 -842 77
-138 172 -283 230 -356 26 -32 45 -61 42 -66 -3 -5 -1 -7 4 -6 8 3 62 -54 62
-65 0 -12 387 -409 412 -423 19 -11 159 -127 201 -167 16 -15 32 -27 37 -27 5
0 10 -3 12 -8 2 -4 19 -18 38 -32 184 -130 248 -179 242 -186 -4 -4 -2 -4 4
-1 6 4 30 -7 53 -23 22 -17 44 -30 47 -30 3 0 24 -13 47 -29 100 -69 418 -245
637 -353 516 -255 1126 -471 1830 -649 107 -27 209 -52 225 -55 17 -3 104 -21
195 -40 91 -20 194 -39 230 -45 36 -5 72 -12 80 -15 13 -5 200 -37 290 -50 19
-3 80 -11 135 -19 55 -8 161 -22 235 -31 74 -9 138 -18 141 -20 3 -2 89 -10
190 -19 101 -8 209 -17 239 -20 643 -59 1645 -59 2425 -1 64 5 334 33 400 41
22 3 81 10 130 16 50 5 135 16 190 24 55 8 116 17 135 19 65 9 345 56 390 66
25 6 63 13 85 16 44 6 44 6 170 33 349 76 624 143 760 186 22 7 99 30 170 50
72 21 159 48 195 60 36 13 146 51 245 85 99 34 194 68 211 76 18 8 83 34 145
59 148 59 221 92 407 181 85 41 160 74 168 74 8 0 14 4 14 9 0 5 15 15 33 22
30 13 230 123 382 212 98 58 363 230 404 264 19 15 40 27 45 25 6 -2 8 0 4 3
-4 4 34 39 85 77 77 59 177 141 223 183 6 5 46 42 89 80 43 39 89 82 103 97
14 15 30 25 36 21 6 -3 8 -2 3 2 -4 5 8 25 27 44 139 148 261 297 370 455 62
92 187 306 219 376 13 30 38 84 55 120 16 36 38 90 47 120 10 30 21 57 25 60
4 3 12 25 18 50 5 25 24 104 41 175 46 192 63 350 63 575 -1 309 -49 559 -168
868 -66 170 -213 443 -316 586 -229 317 -468 565 -818 844 -52 42 -97 79 -100
82 -3 4 -12 9 -20 13 -8 4 -40 25 -70 47 -309 226 -843 521 -1240 685 -36 15
-71 32 -77 37 -7 6 -13 8 -13 5 0 -6 -28 5 -107 39 -21 10 -43 18 -49 19 -6 2
-27 10 -45 18 -19 8 -63 25 -99 37 -36 13 -78 29 -95 36 -16 7 -100 35 -185
63 -139 45 -206 65 -430 131 -73 22 -372 100 -381 100 -4 0 -28 -22 -55 -50z"/>
</g>
</svg>
